<svg width="24" height="25" viewBox="0 0 24 25" fill="none" xmlns="http://www.w3.org/2000/svg">
<path d="M19 13.8594H2C1.59 13.8594 1.25 13.5194 1.25 13.1094C1.25 12.6994 1.59 12.3594 2 12.3594H19C19.41 12.3594 19.75 12.6994 19.75 13.1094C19.75 13.5194 19.41 13.8594 19 13.8594Z" fill="#2E2E2E"/>
<path d="M15.22 22.2508H5.78003C2.35003 22.2508 1.25 21.1608 1.25 17.7708V10.7808C1.25 8.09078 1.86002 6.50078 4.96002 6.32078C5.22002 6.31078 5.49003 6.30078 5.78003 6.30078H15.22C18.65 6.30078 19.75 7.39078 19.75 10.7808V17.9308C19.71 21.2008 18.61 22.2508 15.22 22.2508ZM5.78003 7.80078C5.51003 7.80078 5.26003 7.81078 5.03003 7.82078C3.24003 7.93078 2.75 8.31078 2.75 10.7808V17.7708C2.75 20.3308 3.17003 20.7508 5.78003 20.7508H15.22C17.8 20.7508 18.22 20.3508 18.25 17.9208V10.7808C18.25 8.22078 17.83 7.80078 15.22 7.80078H5.78003Z" fill="#2E2E2E"/>
<path d="M19 18.68C18.81 18.68 18.62 18.61 18.49 18.48C18.34 18.34 18.25 18.14 18.25 17.93V10.78C18.25 8.22 17.83 7.8 15.22 7.8H5.78003C5.51003 7.8 5.26003 7.81 5.03003 7.82C4.83003 7.83 4.62998 7.75 4.47998 7.61C4.32998 7.47 4.25 7.27 4.25 7.06C4.29 3.8 5.39003 2.75 8.78003 2.75H18.22C21.65 2.75 22.75 3.84 22.75 7.23V14.22C22.75 16.91 22.14 18.5 19.04 18.68C19.03 18.68 19.01 18.68 19 18.68ZM5.78003 6.3H15.22C18.65 6.3 19.75 7.39 19.75 10.78V17.1C20.91 16.89 21.25 16.29 21.25 14.22V7.23C21.25 4.67 20.83 4.25 18.22 4.25H8.78003C6.50003 4.25 5.91003 4.56 5.78003 6.3Z" fill="#2E2E2E"/>
<path d="M6.96027 19.0605H5.24023C4.83023 19.0605 4.49023 18.7205 4.49023 18.3105C4.49023 17.9005 4.83023 17.5605 5.24023 17.5605H6.96027C7.37027 17.5605 7.71027 17.9005 7.71027 18.3105C7.71027 18.7205 7.38027 19.0605 6.96027 19.0605Z" fill="#2E2E2E"/>
<path d="M12.5494 19.0605H9.10938C8.69938 19.0605 8.35938 18.7205 8.35938 18.3105C8.35938 17.9005 8.69938 17.5605 9.10938 17.5605H12.5494C12.9594 17.5605 13.2994 17.9005 13.2994 18.3105C13.2994 18.7205 12.9694 19.0605 12.5494 19.0605Z" fill="#2E2E2E"/>
</svg>
