<svg width="24" height="25" viewBox="0 0 24 25" fill="none" xmlns="http://www.w3.org/2000/svg">
<path d="M12 11.0195C11.59 11.0195 11.25 10.6795 11.25 10.2695V6.93945C11.25 6.52945 11.59 6.18945 12 6.18945C12.41 6.18945 12.75 6.52945 12.75 6.93945V10.2695C12.75 10.6895 12.41 11.0195 12 11.0195Z" fill="#2E2E2E"/>
<path d="M12.0208 20.8502C9.44084 20.8502 6.87084 20.4402 4.42084 19.6202C3.51084 19.3202 2.82084 18.6702 2.52084 17.8502C2.22084 17.0302 2.32084 16.0902 2.81084 15.2702L4.08084 13.1502C4.36084 12.6802 4.61084 11.8002 4.61084 11.2502V9.15023C4.61084 5.06023 7.93084 1.74023 12.0208 1.74023C16.1108 1.74023 19.4308 5.06023 19.4308 9.15023V11.2502C19.4308 11.7902 19.6808 12.6802 19.9608 13.1502L21.2308 15.2702C21.7008 16.0502 21.7808 16.9802 21.4708 17.8302C21.1608 18.6802 20.4808 19.3302 19.6208 19.6202C17.1708 20.4502 14.6008 20.8502 12.0208 20.8502ZM12.0208 3.25023C8.76084 3.25023 6.11084 5.90023 6.11084 9.16023V11.2602C6.11084 12.0702 5.79084 13.2402 5.37084 13.9302L4.10084 16.0602C3.84084 16.4902 3.78084 16.9502 3.93084 17.3502C4.08084 17.7502 4.42084 18.0502 4.90084 18.2102C9.50084 19.7402 14.5608 19.7402 19.1608 18.2102C19.5908 18.0702 19.9208 17.7502 20.0708 17.3302C20.2308 16.9102 20.1808 16.4502 19.9508 16.0602L18.6808 13.9402C18.2608 13.2502 17.9408 12.0802 17.9408 11.2702V9.17023C17.9308 5.90023 15.2808 3.25023 12.0208 3.25023Z" fill="#2E2E2E"/>
<path d="M11.9999 23.4003C10.9299 23.4003 9.87992 22.9603 9.11992 22.2003C8.35992 21.4403 7.91992 20.3903 7.91992 19.3203H9.41992C9.41992 20.0003 9.69992 20.6603 10.1799 21.1403C10.6599 21.6203 11.3199 21.9003 11.9999 21.9003C13.4199 21.9003 14.5799 20.7403 14.5799 19.3203H16.0799C16.0799 21.5703 14.2499 23.4003 11.9999 23.4003Z" fill="#2E2E2E"/>
</svg>
