<svg width="25" height="24" viewBox="0 0 25 24" fill="none" xmlns="http://www.w3.org/2000/svg">
<path d="M17.3691 19.0601H9.36914C6.19914 19.0601 3.61914 16.4801 3.61914 13.3101C3.61914 10.1401 6.19914 7.56006 9.36914 7.56006H20.3691C20.7791 7.56006 21.1191 7.90006 21.1191 8.31006C21.1191 8.72006 20.7791 9.06006 20.3691 9.06006H9.36914C7.02914 9.06006 5.11914 10.9701 5.11914 13.3101C5.11914 15.6501 7.02914 17.5601 9.36914 17.5601H17.3691C17.7791 17.5601 18.1191 17.9001 18.1191 18.3101C18.1191 18.7201 17.7891 19.0601 17.3691 19.0601Z" fill="#544BF0"/>
<path d="M18.0698 11.5599C17.8798 11.5599 17.6898 11.4899 17.5398 11.3399C17.2498 11.0499 17.2498 10.5699 17.5398 10.2799L19.5698 8.24988L17.5398 6.21988C17.2498 5.92988 17.2498 5.44988 17.5398 5.15988C17.8298 4.86988 18.3098 4.86988 18.5998 5.15988L21.1598 7.71988C21.4498 8.00988 21.4498 8.48988 21.1598 8.77988L18.5998 11.3399C18.4498 11.4899 18.2598 11.5599 18.0698 11.5599Z" fill="#544BF0"/>
</svg>
