<svg width="20" height="20" viewBox="0 0 20 20" fill="none" xmlns="http://www.w3.org/2000/svg">
<path d="M10.0007 10.0013C12.3018 10.0013 14.1673 8.13582 14.1673 5.83464C14.1673 3.53345 12.3018 1.66797 10.0007 1.66797C7.69946 1.66797 5.83398 3.53345 5.83398 5.83464C5.83398 8.13582 7.69946 10.0013 10.0007 10.0013Z" stroke="#544BF0" stroke-width="1.5" stroke-linecap="round" stroke-linejoin="round"/>
<path d="M2.8418 18.3333C2.8418 15.1083 6.05013 12.5 10.0001 12.5C10.8001 12.5 11.5751 12.6083 12.3001 12.8083" stroke="#544BF0" stroke-width="1.5" stroke-linecap="round" stroke-linejoin="round"/>
<path d="M18.3327 15.0013C18.3327 15.268 18.2994 15.5263 18.2327 15.7763C18.1577 16.1096 18.0244 16.4346 17.8494 16.718C17.2744 17.6846 16.216 18.3346 14.9993 18.3346C14.141 18.3346 13.366 18.0096 12.7827 17.4763C12.5327 17.2596 12.316 17.0013 12.1493 16.718C11.841 16.218 11.666 15.6263 11.666 15.0013C11.666 14.1013 12.0244 13.2763 12.6077 12.6763C13.216 12.0513 14.066 11.668 14.9993 11.668C15.9827 11.668 16.8744 12.093 17.4744 12.7763C18.0077 13.368 18.3327 14.1513 18.3327 15.0013Z" stroke="#544BF0" stroke-width="1.5" stroke-miterlimit="10" stroke-linecap="round" stroke-linejoin="round"/>
<path d="M16.2411 14.9805H13.7578" stroke="#544BF0" stroke-miterlimit="10" stroke-linecap="round" stroke-linejoin="round"/>
<path d="M15 13.7656V16.2573" stroke="#544BF0" stroke-miterlimit="10" stroke-linecap="round" stroke-linejoin="round"/>
</svg>
