<svg width="25" height="25" viewBox="0 0 25 25" fill="none" xmlns="http://www.w3.org/2000/svg">
<path d="M14.9311 19.32C14.7411 19.32 14.5511 19.25 14.4011 19.1C14.1111 18.81 14.1111 18.33 14.4011 18.04L19.9411 12.5L14.4011 6.96C14.1111 6.67 14.1111 6.19 14.4011 5.9C14.6911 5.61 15.1711 5.61 15.4611 5.9L21.5311 11.97C21.8211 12.26 21.8211 12.74 21.5311 13.03L15.4611 19.1C15.3111 19.25 15.1211 19.32 14.9311 19.32Z" fill="#444444"/>
<path d="M20.83 13.25H4C3.59 13.25 3.25 12.91 3.25 12.5C3.25 12.09 3.59 11.75 4 11.75H20.83C21.24 11.75 21.58 12.09 21.58 12.5C21.58 12.91 21.24 13.25 20.83 13.25Z" fill="#444444"/>
</svg>
