<svg width="41" height="40" viewBox="0 0 41 40" fill="none" xmlns="http://www.w3.org/2000/svg">
<path d="M16.4484 31.3669C16.1318 31.3669 15.8151 31.2502 15.5651 31.0002L5.44844 20.8835C4.9651 20.4002 4.9651 19.6002 5.44844 19.1169L15.5651 9.0002C16.0484 8.51686 16.8484 8.51686 17.3318 9.0002C17.8151 9.48353 17.8151 10.2835 17.3318 10.7669L8.09844 20.0002L17.3318 29.2335C17.8151 29.7169 17.8151 30.5169 17.3318 31.0002C17.0984 31.2502 16.7651 31.3669 16.4484 31.3669Z" fill="#544BF0"/>
<path d="M34.6672 21.25H6.61719C5.93385 21.25 5.36719 20.6833 5.36719 20C5.36719 19.3167 5.93385 18.75 6.61719 18.75H34.6672C35.3505 18.75 35.9172 19.3167 35.9172 20C35.9172 20.6833 35.3505 21.25 34.6672 21.25Z" fill="#544BF0"/>
</svg>
