<svg width="20" height="20" viewBox="0 0 20 20" fill="none" xmlns="http://www.w3.org/2000/svg">
<path d="M9.99935 16.6668H3.33268C2.89065 16.6668 2.46673 16.4912 2.15417 16.1787C1.84161 15.8661 1.66602 15.4422 1.66602 15.0002V7.50016C1.66602 7.05814 1.84161 6.63421 2.15417 6.32165C2.46673 6.00909 2.89065 5.8335 3.33268 5.8335H5.83268L7.91602 3.3335H12.0827L14.166 5.8335H16.666C17.108 5.8335 17.532 6.00909 17.8445 6.32165C18.1571 6.63421 18.3327 7.05814 18.3327 7.50016V14.1668" stroke="white" stroke-linecap="round" stroke-linejoin="round"/>
<path d="M15 19.1665V16.6665M15 16.6665V14.1665M15 16.6665H17.5M15 16.6665H12.5" stroke="white" stroke-linecap="round"/>
<path d="M10 13.3335C11.3807 13.3335 12.5 12.2142 12.5 10.8335C12.5 9.45278 11.3807 8.3335 10 8.3335C8.61929 8.3335 7.5 9.45278 7.5 10.8335C7.5 12.2142 8.61929 13.3335 10 13.3335Z" stroke="white" stroke-linecap="round" stroke-linejoin="round"/>
</svg>
