<svg width="16" height="16" viewBox="0 0 16 16" fill="none" xmlns="http://www.w3.org/2000/svg">
<path d="M9.68661 6.31333L6.31328 9.68667C5.87995 9.25333 5.61328 8.66 5.61328 8C5.61328 6.68 6.67995 5.61333 7.99995 5.61333C8.65995 5.61333 9.25328 5.88 9.68661 6.31333Z" stroke="#7E7E7E" stroke-linecap="round" stroke-linejoin="round"/>
<path d="M11.8799 3.84667C10.7132 2.96667 9.3799 2.48667 7.9999 2.48667C5.64656 2.48667 3.45323 3.87333 1.92656 6.27333C1.32656 7.21333 1.32656 8.79334 1.92656 9.73334C2.45323 10.56 3.06656 11.2733 3.73323 11.8467" stroke="#7E7E7E" stroke-linecap="round" stroke-linejoin="round"/>
<path d="M5.61328 13.02C6.37328 13.34 7.17995 13.5133 7.99995 13.5133C10.3533 13.5133 12.5466 12.1267 14.0733 9.72667C14.6733 8.78667 14.6733 7.20667 14.0733 6.26667C13.8533 5.92 13.6133 5.59333 13.3666 5.28667" stroke="#7E7E7E" stroke-linecap="round" stroke-linejoin="round"/>
<path d="M10.3409 8.46667C10.1676 9.40667 9.40094 10.1733 8.46094 10.3467" stroke="#7E7E7E" stroke-linecap="round" stroke-linejoin="round"/>
<path d="M6.31203 9.68667L1.33203 14.6667" stroke="#7E7E7E" stroke-linecap="round" stroke-linejoin="round"/>
<path d="M14.6675 1.33333L9.6875 6.31333" stroke="#7E7E7E" stroke-linecap="round" stroke-linejoin="round"/>
</svg>
