<svg width="16" height="17" viewBox="0 0 16 17" fill="none" xmlns="http://www.w3.org/2000/svg">
<path d="M10.3866 8.75C10.3866 10.07 9.31995 11.1367 7.99995 11.1367C6.67995 11.1367 5.61328 10.07 5.61328 8.75C5.61328 7.43 6.67995 6.36333 7.99995 6.36333C9.31995 6.36333 10.3866 7.43 10.3866 8.75Z" stroke="#7E7E7E" stroke-linecap="round" stroke-linejoin="round"/>
<path d="M7.9999 14.2633C10.3532 14.2633 12.5466 12.8767 14.0732 10.4767C14.6732 9.53667 14.6732 7.95667 14.0732 7.01667C12.5466 4.61667 10.3532 3.23 7.9999 3.23C5.64656 3.23 3.45323 4.61667 1.92656 7.01667C1.32656 7.95667 1.32656 9.53667 1.92656 10.4767C3.45323 12.8767 5.64656 14.2633 7.9999 14.2633Z" stroke="#7E7E7E" stroke-linecap="round" stroke-linejoin="round"/>
</svg>
