<svg width="16" height="17" viewBox="0 0 16 17" fill="none" xmlns="http://www.w3.org/2000/svg">
<path d="M12 15.1667C13.1046 15.1667 14 14.2713 14 13.1667C14 12.0622 13.1046 11.1667 12 11.1667C10.8954 11.1667 10 12.0622 10 13.1667C10 14.2713 10.8954 15.1667 12 15.1667Z" stroke="#1A1919" stroke-linecap="round" stroke-linejoin="round"/>
<path d="M4 10.5C5.10457 10.5 6 9.60457 6 8.5C6 7.39543 5.10457 6.5 4 6.5C2.89543 6.5 2 7.39543 2 8.5C2 9.60457 2.89543 10.5 4 10.5Z" stroke="#1A1919" stroke-linecap="round" stroke-linejoin="round"/>
<path d="M5.72656 9.50659L10.2799 12.1599" stroke="#1A1919" stroke-linecap="round" stroke-linejoin="round"/>
<path d="M12 5.83325C13.1046 5.83325 14 4.93782 14 3.83325C14 2.72868 13.1046 1.83325 12 1.83325C10.8954 1.83325 10 2.72868 10 3.83325C10 4.93782 10.8954 5.83325 12 5.83325Z" stroke="#1A1919" stroke-linecap="round" stroke-linejoin="round"/>
<path d="M10.2732 4.84009L5.72656 7.49342" stroke="#1A1919" stroke-linecap="round" stroke-linejoin="round"/>
</svg>
