<svg width="20" height="21" viewBox="0 0 20 21" fill="none" xmlns="http://www.w3.org/2000/svg">
<path d="M4.4987 2.25H15.4987C16.4154 2.25 17.1654 3 17.1654 3.91667V5.75C17.1654 6.41667 16.7487 7.25 16.332 7.66667L12.7487 10.8333C12.2487 11.25 11.9154 12.0833 11.9154 12.75V16.3333C11.9154 16.8333 11.582 17.5 11.1654 17.75L9.9987 18.5C8.91536 19.1667 7.41536 18.4167 7.41536 17.0833V12.6667C7.41536 12.0833 7.08203 11.3333 6.7487 10.9167L3.58203 7.58333C3.16536 7.16667 2.83203 6.41667 2.83203 5.91667V4C2.83203 3 3.58203 2.25 4.4987 2.25Z" stroke="#444444" stroke-width="1.5" stroke-miterlimit="10" stroke-linecap="round" stroke-linejoin="round"/>
<path d="M9.10833 2.25L5 8.83333" stroke="#444444" stroke-width="1.5" stroke-miterlimit="10" stroke-linecap="round" stroke-linejoin="round"/>
</svg>
