<svg width="16" height="16" viewBox="0 0 16 16" fill="none" xmlns="http://www.w3.org/2000/svg">
<path d="M7.28979 15.1667C6.9698 15.1667 6.64982 15.0867 6.35649 14.9267C5.76315 14.5934 5.40979 14 5.40979 13.3267V9.76003C5.40979 9.42003 5.18978 8.92001 4.98311 8.66001L2.44979 6.00002C2.02979 5.58002 1.70312 4.84668 1.70312 4.30668V2.76003C1.70312 1.6867 2.51647 0.84668 3.5498 0.84668H12.4431C13.4631 0.84668 14.2898 1.67336 14.2898 2.69336V4.17336C14.2898 4.87336 13.8698 5.68001 13.4698 6.07334C13.2765 6.26668 12.9565 6.26668 12.7631 6.07334C12.5698 5.88001 12.5698 5.56001 12.7631 5.36668C13.0098 5.12001 13.2898 4.56669 13.2898 4.17336V2.69336C13.2898 2.22669 12.9098 1.84668 12.4431 1.84668H3.5498C3.07647 1.84668 2.70312 2.2467 2.70312 2.76003V4.30668C2.70312 4.55335 2.90313 5.04003 3.16313 5.30003L5.72982 8.00002C6.06982 8.42002 6.40312 9.1267 6.40312 9.76003V13.3267C6.40312 13.7667 6.70313 13.98 6.83647 14.0533C7.12313 14.2133 7.46315 14.2067 7.72982 14.0467L8.66313 13.4467C8.85646 13.3334 9.04313 12.9667 9.04313 12.72C9.04313 12.4467 9.2698 12.22 9.54313 12.22C9.81647 12.22 10.0431 12.4467 10.0431 12.72C10.0431 13.32 9.66979 14.0067 9.19645 14.2934L8.26982 14.8934C7.96982 15.0734 7.6298 15.1667 7.28979 15.1667Z" fill="white"/>
<path d="M10.7115 11.5137C9.25813 11.5137 8.07812 10.3337 8.07812 8.88041C8.07812 7.42708 9.25813 6.24707 10.7115 6.24707C12.1648 6.24707 13.3448 7.42708 13.3448 8.88041C13.3448 10.3337 12.1648 11.5137 10.7115 11.5137ZM10.7115 7.24707C9.81147 7.24707 9.07812 7.98041 9.07812 8.88041C9.07812 9.78041 9.81147 10.5137 10.7115 10.5137C11.6115 10.5137 12.3448 9.78041 12.3448 8.88041C12.3448 7.98041 11.6115 7.24707 10.7115 7.24707Z" fill="white"/>
<path d="M13.2431 11.913C13.1164 11.913 12.9898 11.8664 12.8898 11.7664L12.2231 11.0997C12.0298 10.9064 12.0298 10.5864 12.2231 10.393C12.4165 10.1997 12.7365 10.1997 12.9298 10.393L13.5965 11.0597C13.7898 11.253 13.7898 11.573 13.5965 11.7664C13.5031 11.8597 13.3698 11.913 13.2431 11.913Z" fill="white"/>
</svg>
