<svg width="20" height="20" viewBox="0 0 20 20" fill="none" xmlns="http://www.w3.org/2000/svg">
<path d="M4.16667 8.33301C3.25 8.33301 2.5 9.08301 2.5 9.99967C2.5 10.9163 3.25 11.6663 4.16667 11.6663C5.08333 11.6663 5.83333 10.9163 5.83333 9.99967C5.83333 9.08301 5.08333 8.33301 4.16667 8.33301Z" stroke="#544BF0" stroke-width="1.5"/>
<path d="M15.8307 8.33301C14.9141 8.33301 14.1641 9.08301 14.1641 9.99967C14.1641 10.9163 14.9141 11.6663 15.8307 11.6663C16.7474 11.6663 17.4974 10.9163 17.4974 9.99967C17.4974 9.08301 16.7474 8.33301 15.8307 8.33301Z" stroke="#544BF0" stroke-width="1.5"/>
<path d="M10.0026 8.33301C9.08594 8.33301 8.33594 9.08301 8.33594 9.99967C8.33594 10.9163 9.08594 11.6663 10.0026 11.6663C10.9193 11.6663 11.6693 10.9163 11.6693 9.99967C11.6693 9.08301 10.9193 8.33301 10.0026 8.33301Z" stroke="#544BF0" stroke-width="1.5"/>
</svg>
