<svg width="16" height="16" viewBox="0 0 16 16" fill="none" xmlns="http://www.w3.org/2000/svg">
<path d="M4 6.66667V5.33333C4 3.12667 4.66667 1.33333 8 1.33333C11.3333 1.33333 12 3.12667 12 5.33333V6.66667" stroke="#7E7E7E" stroke-linecap="round" stroke-linejoin="round"/>
<path d="M8.00065 12.3333C8.92113 12.3333 9.66732 11.5871 9.66732 10.6667C9.66732 9.74619 8.92113 9 8.00065 9C7.08018 9 6.33398 9.74619 6.33398 10.6667C6.33398 11.5871 7.08018 12.3333 8.00065 12.3333Z" stroke="#7E7E7E" stroke-linecap="round" stroke-linejoin="round"/>
<path d="M11.334 14.6667H4.66732C2.00065 14.6667 1.33398 14 1.33398 11.3333V10C1.33398 7.33333 2.00065 6.66667 4.66732 6.66667H11.334C14.0007 6.66667 14.6673 7.33333 14.6673 10V11.3333C14.6673 14 14.0007 14.6667 11.334 14.6667Z" stroke="#7E7E7E" stroke-linecap="round" stroke-linejoin="round"/>
</svg>
