<svg width="21" height="21" viewBox="0 0 21 21" fill="none" xmlns="http://www.w3.org/2000/svg">
<path d="M15.0331 13.3085C14.8747 13.3085 14.7164 13.2502 14.5914 13.1252C14.3497 12.8835 14.3497 12.4835 14.5914 12.2419L16.2831 10.5502L14.5914 8.85853C14.3497 8.61686 14.3497 8.21686 14.5914 7.9752C14.8331 7.73353 15.2331 7.73353 15.4747 7.9752L17.6081 10.1085C17.8497 10.3502 17.8497 10.7502 17.6081 10.9919L15.4747 13.1252C15.3497 13.2502 15.1914 13.3085 15.0331 13.3085Z" fill="#544BF0"/>
<path d="M17.1078 11.1748H8.63281C8.29115 11.1748 8.00781 10.8915 8.00781 10.5498C8.00781 10.2081 8.29115 9.9248 8.63281 9.9248H17.1078C17.4495 9.9248 17.7328 10.2081 17.7328 10.5498C17.7328 10.8915 17.4495 11.1748 17.1078 11.1748Z" fill="#544BF0"/>
<path d="M10.2995 17.7918C6.00781 17.7918 3.00781 14.7918 3.00781 10.5002C3.00781 6.2085 6.00781 3.2085 10.2995 3.2085C10.6411 3.2085 10.9245 3.49183 10.9245 3.8335C10.9245 4.17516 10.6411 4.4585 10.2995 4.4585C6.74115 4.4585 4.25781 6.94183 4.25781 10.5002C4.25781 14.0585 6.74115 16.5418 10.2995 16.5418C10.6411 16.5418 10.9245 16.8252 10.9245 17.1668C10.9245 17.5085 10.6411 17.7918 10.2995 17.7918Z" fill="#544BF0"/>
</svg>
