<svg width="20" height="20" viewBox="0 0 20 20" fill="none" xmlns="http://www.w3.org/2000/svg">
<path d="M8.33398 15.8333C8.33398 16.75 9.08398 17.5 10.0007 17.5C10.9173 17.5 11.6673 16.75 11.6673 15.8333C11.6673 14.9167 10.9173 14.1667 10.0007 14.1667C9.08398 14.1667 8.33398 14.9167 8.33398 15.8333Z" stroke="#7E7E7E" stroke-width="1.5"/>
<path d="M8.33398 4.16634C8.33398 5.08301 9.08398 5.83301 10.0007 5.83301C10.9173 5.83301 11.6673 5.08301 11.6673 4.16634C11.6673 3.24967 10.9173 2.49967 10.0007 2.49967C9.08398 2.49967 8.33398 3.24967 8.33398 4.16634Z" stroke="#7E7E7E" stroke-width="1.5"/>
<path d="M8.33398 10.0003C8.33398 10.917 9.08398 11.667 10.0007 11.667C10.9173 11.667 11.6673 10.917 11.6673 10.0003C11.6673 9.08366 10.9173 8.33366 10.0007 8.33366C9.08398 8.33366 8.33398 9.08366 8.33398 10.0003Z" stroke="#7E7E7E" stroke-width="1.5"/>
</svg>
