<svg width="16" height="16" viewBox="0 0 16 16" fill="none" xmlns="http://www.w3.org/2000/svg">
<mask id="path-1-inside-1_3553_14204" fill="white">
<path d="M7.66732 14.5002C3.90065 14.5002 0.833984 11.4335 0.833984 7.66683C0.833984 3.90016 3.90065 0.833496 7.66732 0.833496C11.434 0.833496 14.5007 3.90016 14.5007 7.66683C14.5007 11.4335 11.434 14.5002 7.66732 14.5002ZM7.66732 1.8335C4.44732 1.8335 1.83398 4.4535 1.83398 7.66683C1.83398 10.8802 4.44732 13.5002 7.66732 13.5002C10.8873 13.5002 13.5007 10.8802 13.5007 7.66683C13.5007 4.4535 10.8873 1.8335 7.66732 1.8335Z"/>
</mask>
<path d="M7.66732 14.5002C3.90065 14.5002 0.833984 11.4335 0.833984 7.66683C0.833984 3.90016 3.90065 0.833496 7.66732 0.833496C11.434 0.833496 14.5007 3.90016 14.5007 7.66683C14.5007 11.4335 11.434 14.5002 7.66732 14.5002ZM7.66732 1.8335C4.44732 1.8335 1.83398 4.4535 1.83398 7.66683C1.83398 10.8802 4.44732 13.5002 7.66732 13.5002C10.8873 13.5002 13.5007 10.8802 13.5007 7.66683C13.5007 4.4535 10.8873 1.8335 7.66732 1.8335Z" fill="#7E7E7E"/>
<path d="M7.66732 13.5002C4.45294 13.5002 1.83398 10.8812 1.83398 7.66683H-0.166016C-0.166016 11.9858 3.34837 15.5002 7.66732 15.5002V13.5002ZM1.83398 7.66683C1.83398 4.45245 4.45294 1.8335 7.66732 1.8335V-0.166504C3.34837 -0.166504 -0.166016 3.34788 -0.166016 7.66683H1.83398ZM7.66732 1.8335C10.8817 1.8335 13.5007 4.45245 13.5007 7.66683H15.5007C15.5007 3.34788 11.9863 -0.166504 7.66732 -0.166504V1.8335ZM13.5007 7.66683C13.5007 10.8812 10.8817 13.5002 7.66732 13.5002V15.5002C11.9863 15.5002 15.5007 11.9858 15.5007 7.66683H13.5007ZM7.66732 0.833496C3.89429 0.833496 0.833984 3.90196 0.833984 7.66683H2.83398C2.83398 5.00504 5.00035 2.8335 7.66732 2.8335V0.833496ZM0.833984 7.66683C0.833984 11.4317 3.89429 14.5002 7.66732 14.5002V12.5002C5.00035 12.5002 2.83398 10.3286 2.83398 7.66683H0.833984ZM7.66732 14.5002C11.4403 14.5002 14.5007 11.4317 14.5007 7.66683H12.5007C12.5007 10.3286 10.3343 12.5002 7.66732 12.5002V14.5002ZM14.5007 7.66683C14.5007 3.90196 11.4403 0.833496 7.66732 0.833496V2.8335C10.3343 2.8335 12.5007 5.00504 12.5007 7.66683H14.5007Z" fill="#7E7E7E" mask="url(#path-1-inside-1_3553_14204)"/>
<mask id="path-3-inside-2_3553_14204" fill="white">
<path d="M14.6676 15.1666C14.5409 15.1666 14.4143 15.12 14.3143 15.02L12.9809 13.6866C12.7876 13.4933 12.7876 13.1733 12.9809 12.98C13.1743 12.7866 13.4943 12.7866 13.6876 12.98L15.0209 14.3133C15.2143 14.5066 15.2143 14.8266 15.0209 15.02C14.9209 15.12 14.7943 15.1666 14.6676 15.1666Z"/>
</mask>
<path d="M14.6676 15.1666C14.5409 15.1666 14.4143 15.12 14.3143 15.02L12.9809 13.6866C12.7876 13.4933 12.7876 13.1733 12.9809 12.98C13.1743 12.7866 13.4943 12.7866 13.6876 12.98L15.0209 14.3133C15.2143 14.5066 15.2143 14.8266 15.0209 15.02C14.9209 15.12 14.7943 15.1666 14.6676 15.1666Z" fill="#7E7E7E"/>
<path d="M14.3143 15.02L13.6072 15.7271L14.3143 15.02ZM12.9809 13.6866L13.688 12.9795L12.9809 13.6866ZM13.6876 12.98L12.9805 13.6871L13.6876 12.98ZM15.0209 14.3133L15.728 13.6062L15.0209 14.3133ZM14.6676 14.1666C14.7918 14.1666 14.924 14.2154 15.0214 14.3129L13.6072 15.7271C13.9046 16.0245 14.29 16.1666 14.6676 16.1666V14.1666ZM15.0214 14.3129L13.688 12.9795L12.2738 14.3937L13.6072 15.7271L15.0214 14.3129ZM13.688 12.9795C13.8852 13.1767 13.8852 13.4899 13.688 13.6871L12.2738 12.2729C11.69 12.8567 11.69 13.8099 12.2738 14.3937L13.688 12.9795ZM13.688 13.6871C13.4909 13.8843 13.1777 13.8843 12.9805 13.6871L14.3947 12.2729C13.8109 11.689 12.8577 11.689 12.2738 12.2729L13.688 13.6871ZM12.9805 13.6871L14.3138 15.0204L15.728 13.6062L14.3947 12.2729L12.9805 13.6871ZM14.3138 15.0204C14.1166 14.8232 14.1166 14.51 14.3138 14.3129L15.728 15.7271C16.3119 15.1432 16.3119 14.19 15.728 13.6062L14.3138 15.0204ZM14.3138 14.3129C14.4113 14.2154 14.5434 14.1666 14.6676 14.1666V16.1666C15.0452 16.1666 15.4306 16.0245 15.728 15.7271L14.3138 14.3129Z" fill="#7E7E7E" mask="url(#path-3-inside-2_3553_14204)"/>
</svg>
