<svg width="17" height="17" viewBox="0 0 17 17" fill="none" xmlns="http://www.w3.org/2000/svg">
<mask id="path-1-inside-1_2882_16113" fill="white">
<path d="M8.16536 14.9999C4.3987 14.9999 1.33203 11.9333 1.33203 8.16659C1.33203 4.39992 4.3987 1.33325 8.16536 1.33325C11.932 1.33325 14.9987 4.39992 14.9987 8.16659C14.9987 11.9333 11.932 14.9999 8.16536 14.9999ZM8.16536 2.33325C4.94536 2.33325 2.33203 4.95325 2.33203 8.16659C2.33203 11.3799 4.94536 13.9999 8.16536 13.9999C11.3854 13.9999 13.9987 11.3799 13.9987 8.16659C13.9987 4.95325 11.3854 2.33325 8.16536 2.33325Z"/>
</mask>
<path d="M8.16536 14.9999C4.3987 14.9999 1.33203 11.9333 1.33203 8.16659C1.33203 4.39992 4.3987 1.33325 8.16536 1.33325C11.932 1.33325 14.9987 4.39992 14.9987 8.16659C14.9987 11.9333 11.932 14.9999 8.16536 14.9999ZM8.16536 2.33325C4.94536 2.33325 2.33203 4.95325 2.33203 8.16659C2.33203 11.3799 4.94536 13.9999 8.16536 13.9999C11.3854 13.9999 13.9987 11.3799 13.9987 8.16659C13.9987 4.95325 11.3854 2.33325 8.16536 2.33325Z" fill="#444444"/>
<path d="M8.16536 13.9999C4.95098 13.9999 2.33203 11.381 2.33203 8.16659H0.332031C0.332031 12.4855 3.84641 15.9999 8.16536 15.9999V13.9999ZM2.33203 8.16659C2.33203 4.9522 4.95098 2.33325 8.16536 2.33325V0.333252C3.84641 0.333252 0.332031 3.84763 0.332031 8.16659H2.33203ZM8.16536 2.33325C11.3797 2.33325 13.9987 4.9522 13.9987 8.16659H15.9987C15.9987 3.84763 12.4843 0.333252 8.16536 0.333252V2.33325ZM13.9987 8.16659C13.9987 11.381 11.3797 13.9999 8.16536 13.9999V15.9999C12.4843 15.9999 15.9987 12.4855 15.9987 8.16659H13.9987ZM8.16536 1.33325C4.39234 1.33325 1.33203 4.40171 1.33203 8.16659H3.33203C3.33203 5.50479 5.49839 3.33325 8.16536 3.33325V1.33325ZM1.33203 8.16659C1.33203 11.9315 4.39234 14.9999 8.16536 14.9999V12.9999C5.49839 12.9999 3.33203 10.8284 3.33203 8.16659H1.33203ZM8.16536 14.9999C11.9384 14.9999 14.9987 11.9315 14.9987 8.16659H12.9987C12.9987 10.8284 10.8323 12.9999 8.16536 12.9999V14.9999ZM14.9987 8.16659C14.9987 4.40171 11.9384 1.33325 8.16536 1.33325V3.33325C10.8323 3.33325 12.9987 5.50479 12.9987 8.16659H14.9987Z" fill="#444444" mask="url(#path-1-inside-1_2882_16113)"/>
<mask id="path-3-inside-2_2882_16113" fill="white">
<path d="M15.1676 15.6666C15.0409 15.6666 14.9143 15.62 14.8143 15.52L13.4809 14.1866C13.2876 13.9933 13.2876 13.6733 13.4809 13.48C13.6743 13.2866 13.9943 13.2866 14.1876 13.48L15.5209 14.8133C15.7143 15.0066 15.7143 15.3266 15.5209 15.52C15.4209 15.62 15.2943 15.6666 15.1676 15.6666Z"/>
</mask>
<path d="M15.1676 15.6666C15.0409 15.6666 14.9143 15.62 14.8143 15.52L13.4809 14.1866C13.2876 13.9933 13.2876 13.6733 13.4809 13.48C13.6743 13.2866 13.9943 13.2866 14.1876 13.48L15.5209 14.8133C15.7143 15.0066 15.7143 15.3266 15.5209 15.52C15.4209 15.62 15.2943 15.6666 15.1676 15.6666Z" fill="#444444"/>
<path d="M14.8143 15.52L14.1072 16.2271L14.8143 15.52ZM13.4809 14.1866L14.188 13.4795L13.4809 14.1866ZM14.1876 13.48L13.4805 14.1871L14.1876 13.48ZM15.5209 14.8133L16.228 14.1062L15.5209 14.8133ZM15.1676 14.6666C15.2918 14.6666 15.424 14.7154 15.5214 14.8129L14.1072 16.2271C14.4046 16.5245 14.79 16.6666 15.1676 16.6666V14.6666ZM15.5214 14.8129L14.188 13.4795L12.7738 14.8937L14.1072 16.2271L15.5214 14.8129ZM14.188 13.4795C14.3852 13.6767 14.3852 13.9899 14.188 14.1871L12.7738 12.7729C12.19 13.3567 12.19 14.3099 12.7738 14.8937L14.188 13.4795ZM14.188 14.1871C13.9909 14.3843 13.6777 14.3843 13.4805 14.1871L14.8947 12.7729C14.3109 12.189 13.3577 12.189 12.7738 12.7729L14.188 14.1871ZM13.4805 14.1871L14.8138 15.5204L16.228 14.1062L14.8947 12.7729L13.4805 14.1871ZM14.8138 15.5204C14.6166 15.3232 14.6166 15.01 14.8138 14.8129L16.228 16.2271C16.8119 15.6432 16.8119 14.69 16.228 14.1062L14.8138 15.5204ZM14.8138 14.8129C14.9113 14.7154 15.0434 14.6666 15.1676 14.6666V16.6666C15.5452 16.6666 15.9306 16.5245 16.228 16.2271L14.8138 14.8129Z" fill="#444444" mask="url(#path-3-inside-2_2882_16113)"/>
</svg>
