<svg width="16" height="17" viewBox="0 0 16 17" fill="none" xmlns="http://www.w3.org/2000/svg">
<path d="M11.334 14.6667H4.66732C2.23398 14.6667 0.833984 13.2667 0.833984 10.8333V6.16667C0.833984 3.73333 2.23398 2.33333 4.66732 2.33333H11.334C13.7673 2.33333 15.1673 3.73333 15.1673 6.16667V10.8333C15.1673 13.2667 13.7673 14.6667 11.334 14.6667ZM4.66732 3.33333C2.76065 3.33333 1.83398 4.26 1.83398 6.16667V10.8333C1.83398 12.74 2.76065 13.6667 4.66732 13.6667H11.334C13.2407 13.6667 14.1673 12.74 14.1673 10.8333V6.16667C14.1673 4.26 13.2407 3.33333 11.334 3.33333H4.66732Z" fill="#7E7E7E"/>
<path d="M8.00076 9.07998C7.44076 9.07998 6.8741 8.90665 6.44077 8.55331L1.9541 4.48665C1.74076 4.31331 1.70077 3.99998 1.8741 3.78664C2.04743 3.57331 2.36077 3.53331 2.5741 3.70665L7.06076 7.77331C7.56743 8.17998 8.42743 8.17998 8.93409 7.77331L13.4208 3.70665C13.6341 3.53331 13.9541 3.56664 14.1208 3.78664C14.2941 3.99998 14.2608 4.31998 14.0408 4.48665L9.5541 8.55331C9.12743 8.90665 8.56076 9.07998 8.00076 9.07998Z" fill="#7E7E7E"/>
</svg>
