<svg width="210" height="219" viewBox="0 0 210 219" fill="none" xmlns="http://www.w3.org/2000/svg">
<path d="M105 181.949H35C30.3587 181.949 25.9075 180.032 22.6256 176.62C19.3437 173.208 17.5 168.58 17.5 163.755V81.8773C17.5 77.0517 19.3437 72.4237 22.6256 69.0115C25.9075 65.5993 30.3587 63.6823 35 63.6823H61.25L83.125 36.3899H126.875L148.75 63.6823H175C179.641 63.6823 184.092 65.5993 187.374 69.0115C190.656 72.4237 192.5 77.0517 192.5 81.8773V154.657" stroke="#7E7E7E" stroke-width="2" stroke-linecap="round" stroke-linejoin="round"/>
<path d="M157.5 209.242V181.949M157.5 181.949V154.657M157.5 181.949H183.75M157.5 181.949H131.25" stroke="#7E7E7E" stroke-linecap="round"/>
<path d="M105 145.559C119.497 145.559 131.25 133.34 131.25 118.267C131.25 103.194 119.497 90.9746 105 90.9746C90.5025 90.9746 78.75 103.194 78.75 118.267C78.75 133.34 90.5025 145.559 105 145.559Z" stroke="#7E7E7E" stroke-width="2" stroke-linecap="round" stroke-linejoin="round"/>
</svg>
