<svg width="64" height="65" viewBox="0 0 64 65" fill="none" xmlns="http://www.w3.org/2000/svg">
<path d="M32.0007 53.8327H10.6673C9.25283 53.8327 7.89628 53.2708 6.89608 52.2706C5.89589 51.2704 5.33398 49.9138 5.33398 48.4993V24.4993C5.33398 23.0849 5.89589 21.7283 6.89608 20.7281C7.89628 19.7279 9.25283 19.166 10.6673 19.166H18.6673L25.334 11.166H38.6673L45.334 19.166H53.334C54.7485 19.166 56.105 19.7279 57.1052 20.7281C58.1054 21.7283 58.6673 23.0849 58.6673 24.4993V45.8327" stroke="white" stroke-width="3" stroke-linecap="round" stroke-linejoin="round"/>
<path d="M48 61.834V53.834M48 53.834V45.834M48 53.834H56M48 53.834H40" stroke="white" stroke-width="3" stroke-linecap="round"/>
<path d="M32 43.166C36.4183 43.166 40 39.5843 40 35.166C40 30.7477 36.4183 27.166 32 27.166C27.5817 27.166 24 30.7477 24 35.166C24 39.5843 27.5817 43.166 32 43.166Z" stroke="white" stroke-width="3" stroke-linecap="round" stroke-linejoin="round"/>
</svg>
