<svg width="40" height="40" viewBox="0 0 40 40" fill="none" xmlns="http://www.w3.org/2000/svg">
<path fill-rule="evenodd" clip-rule="evenodd" d="M20.5215 1.56885L20.5712 1.56909C28.5975 1.60925 35.8367 9.05513 35.8367 17.2648L35.8369 17.3248L35.8495 18.2176C35.8689 20.1554 35.8043 21.858 35.5687 23.667L34.3743 31.4846H26.1283C27.5835 28.5786 28.0503 27.0493 28.336 25.9592L28.4613 25.4006H29.2951C30.3859 25.4006 30.6851 24.1101 30.8876 22.205L30.9115 21.9502C30.9257 21.776 30.9365 21.5933 30.9439 21.402C30.9439 21.1933 30.8128 21.0304 30.4143 20.9241L30.3651 20.912L30.2941 20.9317L30.1825 20.9684L30.1219 20.9904L30.0341 21.0245L29.9511 21.0592L29.7696 21.1398L28.336 22.2769L28.1603 20.4556C27.9257 18.026 25.8725 16.7645 22.6111 15.6722L22.4065 15.6012L22.1052 15.492L21.6768 15.3306C21.2541 15.1684 20.8113 14.9889 20.3597 14.7941C18.974 14.1962 17.746 13.5602 16.7773 12.8918L16.6077 12.7724L16.5188 12.8507L16.2648 13.077L16.0144 13.3064L15.7679 13.5386L15.5257 13.7728L15.2887 14.0085C15.1324 14.166 14.9797 14.3241 14.8313 14.4821L14.6121 14.7189L14.3999 14.955L14.1949 15.1898C14.128 15.2677 14.0623 15.3454 13.998 15.4226L13.8096 15.653L13.63 15.8804C12.8721 16.8584 12.3796 18.4284 12.3341 18.9966L12.3308 19.0608V22.8873L10.2144 21.4032C10.1867 21.3813 10.1558 21.3702 10.1245 21.3702C9.98187 21.3702 9.62682 21.4032 9.49239 21.5988C9.4033 21.7285 9.35999 21.9302 9.37976 22.0484C9.37976 23.667 9.82894 24.7949 10.5566 25.0072L10.6272 25.0082L11.8932 25.4006L12.0605 26.1896L12.1137 26.39C12.4287 27.5778 13.1296 30.2214 14.1948 31.4846H6.02578L5.10678 25.2557C5.09931 25.1734 5.09195 25.0906 5.0847 25.0072L5.0424 24.5004L5.0026 23.9833L4.9653 23.4584L4.93051 22.9285L4.89824 22.3961L4.85459 21.5988L4.82867 21.0721L4.8053 20.5522L4.77504 19.7913L4.75058 19.0608L4.73194 18.37L4.71915 17.7276L4.7139 17.3308L4.71094 16.7894C4.71094 11.6991 10.4422 4.76987 15.8175 3.80583L15.9287 3.79469L15.9459 3.76823C16.4489 3.01135 17.2569 2.46795 18.2641 2.08786C19.0407 1.79478 19.844 1.6333 20.472 1.57355L20.5215 1.56885ZM20.6117 3.56043L20.5407 3.56827C20.0885 3.62181 19.5073 3.74657 18.9671 3.95046C18.1693 4.25153 17.6472 4.65878 17.4687 5.13507L17.2245 5.78637L16.5289 5.78099L16.0933 5.77941L16.0361 5.79077C13.6897 6.26623 11.1847 8.20753 9.36107 10.5364L9.1613 10.7966C7.71742 12.7164 6.74659 14.8669 6.70332 16.6649L6.70182 16.7894L6.70214 16.9574C6.70188 18.0698 6.70182 20.0358 6.70182 20.8798C7.06395 24.9405 7.29907 26.8524 7.89631 29.4404L11.5754 29.4538L11.4715 29.2022C11.4289 29.097 11.2631 28.4909 11.1121 27.939C10.9896 27.491 10.8768 27.0786 10.8477 26.9994L10.8424 26.9853L10.8109 26.9828C8.95583 26.3957 7.64607 23.7762 7.7916 21.4477L7.78532 21.3138L7.78336 21.2962C8.08266 19.8469 8.70996 19.6466 10.5229 19.6506L10.5563 19.6466L10.5567 18.3916C10.5864 16.8901 11.7442 14.7768 13.6516 12.8197L13.9149 12.5536L14.1844 12.2893C14.2752 12.2015 14.3669 12.1141 14.4596 12.0271L14.74 11.7675C14.7871 11.7245 14.8344 11.6816 14.882 11.6388L15.1693 11.3837L15.4609 11.1321L15.756 10.8844L16.4661 10.3042L17.5604 11.005L17.6205 11.0467C18.4853 11.6949 19.7209 12.3503 21.1485 12.9662L21.4225 13.083L21.8189 13.247L22.1915 13.396L22.5333 13.5281L22.8379 13.6416L23.0979 13.7346L23.4301 13.8482C26.708 14.9884 28.9221 16.5292 29.6456 19.0672L29.664 19.1346L29.7611 19.1144C29.912 18.9737 30.3087 18.7754 30.4941 18.6826C31.3673 18.2461 32.5323 19.2914 32.5316 20.5746C32.4031 23.932 31.9175 26.1721 29.7363 26.9994L29.7291 26.9998L29.6456 27.1234L28.6116 29.4538L32.2329 29.4404C32.5265 28.28 33.1899 25.4382 33.4945 23.3548C33.7305 21.5425 33.7848 19.8168 33.7537 17.803L33.7437 16.9968C33.6203 9.95421 27.4093 3.59415 20.5613 3.55989L20.6117 3.56043ZM19.914 35.386C21.8241 35.386 23.574 34.4926 24.8061 33.1178V33.5622C24.8061 34.3013 25.1021 35.5749 25.2616 36.2338C25.8485 38.659 13.9009 38.659 14.8419 36.2338C15.1649 35.4965 15.3776 34.0896 15.3776 33.2394V33.1178C16.598 34.3433 18.12 35.386 19.914 35.386Z" fill="white"/>
<g filter="url(#filter0_f_6563_219049)">
<ellipse cx="25.6491" cy="25.9445" rx="3" ry="0.5" transform="rotate(-66.628 25.6491 25.9445)" fill="#FFE864"/>
</g>
<g filter="url(#filter1_f_6563_219049)">
<ellipse cx="3" cy="0.5" rx="3" ry="0.5" transform="matrix(-0.396699 -0.917949 -0.917949 0.396699 16.7969 28.5)" fill="#FFE864"/>
</g>
<defs>
<filter id="filter0_f_6563_219049" x="22.875" y="21.6836" width="5.54688" height="8.52197" filterUnits="userSpaceOnUse" color-interpolation-filters="sRGB">
<feFlood flood-opacity="0" result="BackgroundImageFix"/>
<feBlend mode="normal" in="SourceGraphic" in2="BackgroundImageFix" result="shape"/>
<feGaussianBlur stdDeviation="0.75" result="effect1_foregroundBlur_6563_219049"/>
</filter>
<filter id="filter1_f_6563_219049" x="12.375" y="21.6836" width="5.54688" height="8.52197" filterUnits="userSpaceOnUse" color-interpolation-filters="sRGB">
<feFlood flood-opacity="0" result="BackgroundImageFix"/>
<feBlend mode="normal" in="SourceGraphic" in2="BackgroundImageFix" result="shape"/>
<feGaussianBlur stdDeviation="0.75" result="effect1_foregroundBlur_6563_219049"/>
</filter>
</defs>
</svg>
