<svg width="40" height="41" viewBox="0 0 40 41" fill="none" xmlns="http://www.w3.org/2000/svg">
<path fill-rule="evenodd" clip-rule="evenodd" d="M29.3993 25.9107C29.2381 26.0177 29.0814 26.0926 28.9326 26.1375C29.1489 25.4389 29.3798 24.2511 29.0369 24.1407C28.6933 24.0299 28.2723 25.3399 28.2723 25.3399C26.5703 30.7594 22.2193 33.2758 20.3207 33.2993C19.6763 33.3077 18.6515 33.0189 17.5335 32.3834C15.9746 31.4455 14.2375 29.7986 13.0502 27.471C12.8198 26.9826 12.6129 26.4617 12.4393 25.9042C12.0864 24.7519 11.6866 24.3758 11.463 24.4934C11.1886 24.5809 11.3182 25.3501 11.4876 26.0173C11.3196 25.979 11.1299 25.8974 10.9114 25.7389C9.99615 25.0761 9.03855 23.2554 9.215 21.5165C9.25367 21.1201 9.37931 20.6054 9.74348 20.4113C9.86939 20.3437 10.0131 20.3207 10.1531 20.3179C10.4363 21.4338 10.8137 22.5658 11.05 22.4834C11.279 22.4033 11.0503 21.1299 11.0015 19.6321C11.172 19.4622 11.3608 19.3027 11.6728 18.9947C12.9161 18.1206 15.3409 18.2609 20.3573 17.0207C24.5094 15.9982 25.7103 14.1755 25.9703 12.8994C27.3105 14.2487 28.2633 15.8671 28.5591 17.2209C28.8378 18.4137 29.0051 19.0666 29.2143 19.5059C29.1746 21.0574 28.9273 22.4013 29.1627 22.4834C29.3934 22.5635 29.759 21.4861 30.0398 20.3963C30.2394 20.371 30.4797 20.3715 30.675 20.4799C31.0361 20.6794 31.1519 21.2078 31.1813 21.615C31.3167 23.3934 30.3351 25.2899 29.3993 25.9107ZM32.3782 21.4983C32.2985 20.4678 31.8974 19.7586 31.2147 19.3871C31.1015 19.3247 31.2015 7.18525 20.1297 6.9042C8.87372 6.61808 8.97083 19.2595 8.84049 19.3265C8.14635 19.6873 7.72917 20.3798 7.62249 21.3834C7.59519 21.6401 7.58787 21.9029 7.59828 22.165C7.60869 22.4286 7.63797 22.6939 7.68385 22.9575C7.77591 23.4857 7.93635 24.0065 8.15479 24.4955C8.52579 25.331 9.06653 26.0705 9.68665 26.5854C9.67877 27.039 9.61713 29.4338 8.03263 29.7955C8.03263 29.7955 10.6843 31.5769 13.5659 30.4721C13.8325 30.8774 14.0903 31.2677 14.3378 31.6095C16.3434 33.823 18.747 34.5622 20.153 34.4953C21.6309 34.425 23.4659 34.0161 25.485 31.8259C25.9658 31.3001 26.3675 30.8358 26.7106 30.4215C29.505 31.4746 31.6897 29.7955 31.6897 29.7955C30.1057 29.4338 30.0438 27.0407 30.0353 26.5859C30.7357 26.0177 31.4754 25.3119 31.7591 24.6934C31.9897 24.1919 32.1654 23.6563 32.2726 23.115C32.3261 22.8438 32.3623 22.5722 32.3805 22.301C32.399 22.0298 32.3982 21.7614 32.3782 21.4983Z" fill="white"/>
<path d="M11.9628 34.0744C11.7428 34.0949 11.5812 34.2899 11.6017 34.5099L11.9367 38.0943C11.9572 38.3142 12.1522 38.4759 12.3722 38.4553C12.5921 38.4347 12.7538 38.2398 12.7332 38.0198L12.4355 34.8337L15.6216 34.536C15.8416 34.5154 16.0032 34.3204 15.9826 34.1005C15.9621 33.8805 15.7671 33.7189 15.5472 33.7394L11.9628 34.0744ZM28.8308 34.5499C28.8735 34.3332 28.7324 34.1229 28.5156 34.0802L24.9835 33.3846C24.7667 33.3419 24.5564 33.483 24.5137 33.6998C24.4711 33.9165 24.6122 34.1268 24.8289 34.1695L27.9686 34.7878L27.3503 37.9275C27.3076 38.1443 27.4487 38.3546 27.6655 38.3973C27.8822 38.44 28.0925 38.2989 28.1352 38.0821L28.8308 34.5499ZM11.7447 34.7806C14.2836 36.8855 20.9795 39.9588 28.6612 34.8048L28.2155 34.1405C20.9111 39.0412 14.607 36.1145 12.2553 34.1647L11.7447 34.7806Z" fill="white"/>
<g filter="url(#filter0_f_6563_219037)">
<ellipse cx="20" cy="34" rx="3" ry="0.5" fill="#FF953E"/>
</g>
<defs>
<filter id="filter0_f_6563_219037" x="16" y="32.5" width="8" height="3" filterUnits="userSpaceOnUse" color-interpolation-filters="sRGB">
<feFlood flood-opacity="0" result="BackgroundImageFix"/>
<feBlend mode="normal" in="SourceGraphic" in2="BackgroundImageFix" result="shape"/>
<feGaussianBlur stdDeviation="0.5" result="effect1_foregroundBlur_6563_219037"/>
</filter>
</defs>
</svg>
