<svg width="40" height="40" viewBox="0 0 40 40" fill="none" xmlns="http://www.w3.org/2000/svg">
<path d="M20 24.5833C19.3167 24.5833 18.75 24.0167 18.75 23.3333V15C18.75 14.3167 19.3167 13.75 20 13.75C20.6833 13.75 21.25 14.3167 21.25 15V23.3333C21.25 24.0167 20.6833 24.5833 20 24.5833Z" fill="#FFC700"/>
<path d="M20.0026 29.9996C19.9026 29.9996 19.7859 29.9829 19.6693 29.9663C19.5693 29.9496 19.4693 29.9163 19.3693 29.8663C19.2693 29.8329 19.1693 29.7829 19.0693 29.7163C18.9859 29.6496 18.9026 29.5829 18.8193 29.5163C18.5193 29.1996 18.3359 28.7663 18.3359 28.3329C18.3359 27.8996 18.5193 27.4663 18.8193 27.1496C18.9026 27.0829 18.9859 27.0163 19.0693 26.9496C19.1693 26.8829 19.2693 26.8329 19.3693 26.7996C19.4693 26.7496 19.5693 26.7163 19.6693 26.6996C19.8859 26.6496 20.1193 26.6496 20.3193 26.6996C20.4359 26.7163 20.5359 26.7496 20.6359 26.7996C20.7359 26.8329 20.8359 26.8829 20.9359 26.9496C21.0193 27.0163 21.1026 27.0829 21.1859 27.1496C21.4859 27.4663 21.6693 27.8996 21.6693 28.3329C21.6693 28.7663 21.4859 29.1996 21.1859 29.5163C21.1026 29.5829 21.0193 29.6496 20.9359 29.7163C20.8359 29.7829 20.7359 29.8329 20.6359 29.8663C20.5359 29.9163 20.4359 29.9496 20.3193 29.9663C20.2193 29.9829 20.1026 29.9996 20.0026 29.9996Z" fill="#FFC700"/>
<path d="M30.0975 36.9331H9.89752C6.64752 36.9331 4.16419 35.7497 2.89752 33.6164C1.64752 31.4831 1.81418 28.7331 3.39752 25.8831L13.4975 7.71641C15.1642 4.71641 17.4642 3.06641 19.9975 3.06641C22.5309 3.06641 24.8309 4.71641 26.4975 7.71641L36.5975 25.8997C38.1809 28.7497 38.3642 31.4831 37.0975 33.6331C35.8309 35.7497 33.3475 36.9331 30.0975 36.9331ZM19.9975 5.56641C18.4309 5.56641 16.8975 6.76641 15.6809 8.93307L5.59752 27.1164C4.46418 29.1497 4.28085 31.0164 5.06419 32.3664C5.84752 33.7164 7.58085 34.4497 9.91418 34.4497H30.1142C32.4475 34.4497 34.1642 33.7164 34.9642 32.3664C35.7642 31.0164 35.5642 29.1664 34.4309 27.1164L24.3142 8.93307C23.0975 6.76641 21.5642 5.56641 19.9975 5.56641Z" fill="#FFC700"/>
</svg>
