<svg width="20" height="21" viewBox="0 0 20 21" fill="none" xmlns="http://www.w3.org/2000/svg">
<path d="M9.99896 14.1083C8.00729 14.1083 6.39062 12.4916 6.39062 10.4999C6.39062 8.50827 8.00729 6.8916 9.99896 6.8916C11.9906 6.8916 13.6073 8.50827 13.6073 10.4999C13.6073 12.4916 11.9906 14.1083 9.99896 14.1083ZM9.99896 8.1416C8.69896 8.1416 7.64062 9.19993 7.64062 10.4999C7.64062 11.7999 8.69896 12.8583 9.99896 12.8583C11.299 12.8583 12.3573 11.7999 12.3573 10.4999C12.3573 9.19993 11.299 8.1416 9.99896 8.1416Z" fill="#2E2E2E"/>
<path d="M9.99844 18.0167C6.8651 18.0167 3.90677 16.1834 1.87344 13.0001C0.990104 11.6251 0.990104 9.3834 1.87344 8.00007C3.9151 4.81673 6.87344 2.9834 9.99844 2.9834C13.1234 2.9834 16.0818 4.81673 18.1151 8.00007C18.9984 9.37507 18.9984 11.6167 18.1151 13.0001C16.0818 16.1834 13.1234 18.0167 9.99844 18.0167ZM9.99844 4.2334C7.30677 4.2334 4.73177 5.85007 2.93177 8.67507C2.30677 9.65007 2.30677 11.3501 2.93177 12.3251C4.73177 15.1501 7.30677 16.7667 9.99844 16.7667C12.6901 16.7667 15.2651 15.1501 17.0651 12.3251C17.6901 11.3501 17.6901 9.65007 17.0651 8.67507C15.2651 5.85007 12.6901 4.2334 9.99844 4.2334Z" fill="#2E2E2E"/>
</svg>
