<svg width="40" height="40" viewBox="0 0 40 40" fill="none" xmlns="http://www.w3.org/2000/svg">
<path fill-rule="evenodd" clip-rule="evenodd" d="M29.3993 25.4112C29.2381 25.5181 29.0814 25.5931 28.9326 25.638C29.1489 24.9393 29.3798 23.7516 29.0369 23.6412C28.6933 23.5304 28.2723 24.8404 28.2723 24.8404C26.5703 30.2599 22.2193 32.7763 20.3207 32.7997C19.6763 32.8081 18.6515 32.5193 17.5335 31.8839C15.9746 30.946 14.2375 29.2991 13.0502 26.9715C12.8198 26.4831 12.6129 25.9621 12.4393 25.4047C12.0864 24.2524 11.6866 23.8763 11.463 23.9939C11.1886 24.0813 11.3182 24.8505 11.4876 25.5177C11.3196 25.4795 11.1299 25.3979 10.9114 25.2393C9.99615 24.5765 9.03855 22.7559 9.215 21.0169C9.25367 20.6205 9.37931 20.1059 9.74348 19.9117C9.86939 19.8441 10.0131 19.8212 10.1531 19.8184C10.4363 20.9343 10.8137 22.0663 11.05 21.9839C11.279 21.9037 11.0503 20.6304 11.0015 19.1325C11.172 18.9627 11.3608 18.8032 11.6728 18.4952C12.9161 17.6211 15.3409 17.7613 20.3573 16.5212C24.5094 15.4987 25.7103 13.676 25.9703 12.3999C27.3105 13.7492 28.2633 15.3676 28.5591 16.7213C28.8378 17.9141 29.0051 18.5671 29.2143 19.0064C29.1746 20.5579 28.9273 21.9017 29.1627 21.9839C29.3934 22.064 29.759 20.9865 30.0398 19.8968C30.2394 19.8715 30.4797 19.872 30.675 19.9804C31.0361 20.1799 31.1519 20.7083 31.1813 21.1155C31.3167 22.8939 30.3351 24.7904 29.3993 25.4112ZM32.3782 20.9988C32.2985 19.9683 31.8974 19.2591 31.2147 18.8876C31.1015 18.8252 31.2015 6.68574 20.1297 6.40469C8.87372 6.11857 8.97083 18.76 8.84049 18.8269C8.14635 19.1877 7.72917 19.8803 7.62249 20.8839C7.59519 21.1405 7.58787 21.4033 7.59828 21.6655C7.60869 21.9291 7.63797 22.1944 7.68385 22.458C7.77591 22.9861 7.93635 23.5069 8.15479 23.996C8.52579 24.8315 9.06653 25.5709 9.68665 26.0859C9.67877 26.5395 9.61713 28.9343 8.03263 29.296C8.03263 29.296 10.6843 31.0773 13.5659 29.9725C13.8325 30.3779 14.0903 30.7681 14.3378 31.11C16.3434 33.3235 18.747 34.0627 20.153 33.9957C21.6309 33.9255 23.4659 33.5165 25.485 31.3264C25.9658 30.8005 26.3675 30.3363 26.7106 29.922C29.505 30.9751 31.6897 29.296 31.6897 29.296C30.1057 28.9343 30.0438 26.5412 30.0353 26.0864C30.7357 25.5181 31.4754 24.8124 31.7591 24.1939C31.9897 23.6924 32.1654 23.1568 32.2726 22.6155C32.3261 22.3443 32.3623 22.0727 32.3805 21.8015C32.399 21.5303 32.3982 21.2619 32.3782 20.9988Z" fill="white"/>
</svg>
