<svg width="40" height="41" viewBox="0 0 40 41" fill="none" xmlns="http://www.w3.org/2000/svg">
<path d="M34.916 17.2041C32.389 16.4718 29.8742 15.7117 27.3953 14.8042C26.2896 14.3978 25.4633 14.2017 24.7926 14.1316C24.6249 14.1141 24.4693 14.1036 24.3176 14.1001C24.166 14.1001 24.0262 14.1036 23.8905 14.1141C23.615 14.1352 23.3676 14.1772 23.1241 14.2332C22.2458 14.4329 21.4474 14.7902 20.0024 14.8568C18.5574 14.7902 17.759 14.4329 16.8808 14.2332C16.6373 14.1772 16.3858 14.1352 16.1144 14.1141C15.9706 14.1036 15.8269 14.1001 15.6793 14.1001C15.5276 14.1036 15.3718 14.1106 15.2042 14.1281C14.5336 14.1982 13.7073 14.3944 12.6016 14.8008C10.1226 15.7117 7.61576 16.4718 5.09292 17.2076C4.54205 17.3652 4.10694 17.1234 2.39844 17.5754C2.4623 17.586 5.27256 19.4917 7.81536 22.0492C9.93901 24.0706 12.9568 27.094 16.5934 27.5249C18.0145 27.693 18.5973 27.7001 19.9785 27.7001C21.0922 27.6616 22.8526 27.7106 23.8346 27.5914C27.1358 27.1816 29.1877 25.1076 32.7284 22.0072C35.327 19.9788 37.5585 17.5789 37.5984 17.572C35.898 17.1234 35.4628 17.3617 34.916 17.2041ZM9.18456 18.7245C9.18456 18.7245 17.8508 19.5268 19.9266 19.6529C22.0064 19.7861 31.0558 18.5458 31.0758 18.5493C30.8322 18.4688 22.3984 25.1744 9.18456 18.7245Z" fill="white"/>
</svg>
