<svg width="18" height="20" viewBox="0 0 18 20" fill="none" xmlns="http://www.w3.org/2000/svg">
<path d="M4.83333 9.16602V5.83268C4.83333 4.72761 5.27232 3.66781 6.05372 2.8864C6.83512 2.105 7.89493 1.66602 9 1.66602C10.1051 1.66602 11.1649 2.105 11.9463 2.8864C12.7277 3.66781 13.1667 4.72761 13.1667 5.83268V9.16602M3.16667 9.16602H14.8333C15.7538 9.16602 16.5 9.91221 16.5 10.8327V16.666C16.5 17.5865 15.7538 18.3327 14.8333 18.3327H3.16667C2.24619 18.3327 1.5 17.5865 1.5 16.666V10.8327C1.5 9.91221 2.24619 9.16602 3.16667 9.16602Z" stroke="#2E2E2E" stroke-width="1.5" stroke-linecap="round" stroke-linejoin="round"/>
</svg>
