<svg width="41" height="41" viewBox="0 0 41 41" fill="none" xmlns="http://www.w3.org/2000/svg">
<path fill-rule="evenodd" clip-rule="evenodd" d="M21.7022 20.7159C23.8558 17.0377 24.7081 11.3563 24.8348 8.39428C24.927 7.61736 24.3857 7.58093 24.2819 8.32145C23.9019 11.0407 21.3221 20.206 13.8705 26.0937C12.0968 27.2105 12.569 29.4684 13.7208 30.379C16.1047 32.1391 18.3851 33.2682 21.0111 33.4381C21.6791 33.341 21.8058 33.1346 21.0457 32.7341C19.4218 31.6293 15.2986 29.0801 16.3468 27.769C17.2565 26.555 19.8825 24.2363 21.7022 20.7159Z" fill="white"/>
<path fill-rule="evenodd" clip-rule="evenodd" d="M27.4149 30.6403C26.6202 29.6495 25.7206 28.9171 22.4669 29.7501C22.1821 29.8218 21.9722 30.3101 22.362 30.3819C23.4865 30.6259 24.5961 30.1378 24.9709 31.4158C24.9709 32.1338 24.3262 32.6795 24.4461 33.2395C24.701 33.6415 25.3757 33.3401 26.0354 33.139C27.34 32.8374 27.8048 31.4733 27.4149 30.6403Z" fill="white"/>
</svg>
