<svg width="40" height="41" viewBox="0 0 40 41" fill="none" xmlns="http://www.w3.org/2000/svg">
<path fill-rule="evenodd" clip-rule="evenodd" d="M11.1446 19.4568C18.2393 17.1448 27.4486 19.1419 27.4486 19.1419C27.9136 15.5469 25.9699 10.7455 25.9699 10.7455C31.0438 16.9377 26.2871 34.0535 26.2871 34.0535C28.7845 33.2547 29.3517 32.1759 29.3517 32.1759C30.8122 28.3273 30.8915 18.6605 30.8915 18.6605C31.4993 29.1041 30.1921 31.6525 30.1921 31.6525C31.9222 30.924 33.1569 29.4717 33.1569 29.4717C33.4203 20.0265 32.6614 15.5272 29.2099 10.4405C25.3663 4.77597 19.1849 6.88369 19.1849 6.88369C19.1849 6.88369 14.0178 5.32473 10.5411 10.346C4.4112 19.1995 7.6702 29.8917 7.6702 29.8917C8.17621 30.5005 10.1376 31.8905 10.1376 31.8905C9.02335 27.2039 9.50577 24.6247 9.53055 24.8789C10.0373 30.05 10.6421 32.0903 10.9124 32.2223C13.2751 33.3756 15.4901 34.1847 15.4901 34.1847C10.4955 27.7649 11.1446 19.4568 11.1446 19.4568Z" fill="white"/>
</svg>
