<svg width="40" height="40" viewBox="0 0 40 40" fill="none" xmlns="http://www.w3.org/2000/svg">
<path d="M20.0026 37.9163C10.1193 37.9163 2.08594 29.883 2.08594 19.9997C2.08594 10.1163 10.1193 2.08301 20.0026 2.08301C29.8859 2.08301 37.9193 10.1163 37.9193 19.9997C37.9193 29.883 29.8859 37.9163 20.0026 37.9163ZM20.0026 4.58301C11.5026 4.58301 4.58594 11.4997 4.58594 19.9997C4.58594 28.4997 11.5026 35.4163 20.0026 35.4163C28.5026 35.4163 35.4193 28.4997 35.4193 19.9997C35.4193 11.4997 28.5026 4.58301 20.0026 4.58301Z" fill="#0CBC84"/>
<path d="M17.6344 25.9663C17.301 25.9663 16.9844 25.833 16.751 25.5997L12.0344 20.883C11.551 20.3997 11.551 19.5997 12.0344 19.1163C12.5177 18.633 13.3177 18.633 13.801 19.1163L17.6344 22.9497L26.201 14.383C26.6844 13.8997 27.4844 13.8997 27.9677 14.383C28.451 14.8663 28.451 15.6663 27.9677 16.1497L18.5177 25.5997C18.2844 25.833 17.9677 25.9663 17.6344 25.9663Z" fill="#0CBC84"/>
</svg>
