<svg width="16" height="17" viewBox="0 0 16 17" fill="none" xmlns="http://www.w3.org/2000/svg">
<path d="M11.5364 5.96155C11.7805 6.20569 11.7805 6.60144 11.5364 6.84546L7.34351 11.0385C7.09937 11.2825 6.70374 11.2825 6.45959 11.0385L4.46362 9.04236C4.21948 8.79834 4.21948 8.40259 4.46362 8.15857C4.70764 7.91443 5.10339 7.91443 5.34741 8.15857L6.90149 9.71265L10.6525 5.96155C10.8966 5.71753 11.2924 5.71753 11.5364 5.96155ZM16 8.5C16 12.922 12.4214 16.5 8 16.5C3.578 16.5 0 12.9214 0 8.5C0 4.078 3.57861 0.5 8 0.5C12.422 0.5 16 4.07861 16 8.5ZM14.75 8.5C14.75 4.76892 11.7306 1.75 8 1.75C4.26892 1.75 1.25 4.76941 1.25 8.5C1.25 12.2311 4.26941 15.25 8 15.25C11.7311 15.25 14.75 12.2306 14.75 8.5Z" fill="#444444"/>
</svg>
