<svg width="560" height="411" viewBox="0 0 560 411" fill="none" xmlns="http://www.w3.org/2000/svg">
<g clip-path="url(#clip0_4150_7451)">
<rect width="560" height="410.297" rx="8" fill="white"/>
<rect x="7.75781" y="14.5138" width="399.107" height="335.008" rx="4.83766" fill="#D9D9D9"/>
<path d="M207.31 211.618H164.981C162.174 211.618 159.483 210.458 157.498 208.395C155.513 206.332 154.398 203.533 154.398 200.615V151.103C154.398 148.185 155.513 145.387 157.498 143.323C159.483 141.26 162.174 140.101 164.981 140.101H180.854L194.082 123.597H220.538L233.766 140.101H249.64C252.446 140.101 255.138 141.26 257.123 143.323C259.107 145.387 260.222 148.185 260.222 151.103V195.114" stroke="#7E7E7E" stroke-width="1.20941" stroke-linecap="round" stroke-linejoin="round"/>
<path d="M239.057 228.122V211.618M239.057 211.618V195.114M239.057 211.618H254.931M239.057 211.618H223.184" stroke="#7E7E7E" stroke-width="0.604707" stroke-linecap="round"/>
<path d="M207.311 189.612C216.078 189.612 223.185 182.223 223.185 173.109C223.185 163.994 216.078 156.605 207.311 156.605C198.544 156.605 191.438 163.994 191.438 173.109C191.438 182.223 198.544 189.612 207.311 189.612Z" stroke="#7E7E7E" stroke-width="1.20941" stroke-linecap="round" stroke-linejoin="round"/>
<rect x="416.543" y="14.5139" width="138.478" height="105.219" rx="4.83766" fill="#D9D9D9"/>
<rect x="416.543" y="129.408" width="138.478" height="105.219" rx="4.83766" fill="#D9D9D9"/>
<path d="M428.875 146.947V147.665H424.373V147.036L426.627 144.528C426.904 144.219 427.118 143.958 427.269 143.744C427.424 143.526 427.531 143.333 427.59 143.162C427.653 142.989 427.685 142.813 427.685 142.633C427.685 142.407 427.638 142.202 427.543 142.019C427.452 141.833 427.316 141.685 427.137 141.575C426.957 141.465 426.74 141.41 426.485 141.41C426.179 141.41 425.924 141.47 425.72 141.589C425.518 141.706 425.367 141.87 425.266 142.081C425.165 142.292 425.115 142.534 425.115 142.808H424.241C424.241 142.421 424.326 142.066 424.496 141.745C424.666 141.424 424.918 141.169 425.252 140.98C425.586 140.788 425.997 140.692 426.485 140.692C426.92 140.692 427.291 140.769 427.6 140.923C427.909 141.074 428.145 141.288 428.309 141.566C428.475 141.84 428.559 142.161 428.559 142.529C428.559 142.731 428.524 142.936 428.455 143.144C428.389 143.348 428.296 143.553 428.176 143.758C428.06 143.962 427.923 144.164 427.765 144.362C427.611 144.561 427.446 144.756 427.269 144.948L425.427 146.947H428.875ZM429.92 147.202C429.92 147.054 429.965 146.929 430.057 146.828C430.151 146.725 430.286 146.673 430.463 146.673C430.639 146.673 430.773 146.725 430.864 146.828C430.959 146.929 431.006 147.054 431.006 147.202C431.006 147.347 430.959 147.469 430.864 147.57C430.773 147.671 430.639 147.721 430.463 147.721C430.286 147.721 430.151 147.671 430.057 147.57C429.965 147.469 429.92 147.347 429.92 147.202ZM436.76 146.923V147.665H433.321V146.923H436.76ZM433.501 140.786V147.665H432.589V140.786H433.501ZM439.793 147.759C439.437 147.759 439.115 147.699 438.825 147.58C438.538 147.457 438.291 147.285 438.083 147.065C437.878 146.844 437.721 146.583 437.611 146.28C437.5 145.978 437.445 145.647 437.445 145.288V145.09C437.445 144.674 437.507 144.304 437.63 143.98C437.752 143.652 437.919 143.375 438.13 143.148C438.341 142.922 438.581 142.75 438.848 142.633C439.116 142.517 439.393 142.459 439.68 142.459C440.045 142.459 440.36 142.522 440.625 142.647C440.892 142.773 441.111 142.95 441.281 143.177C441.451 143.4 441.577 143.665 441.659 143.97C441.741 144.273 441.782 144.603 441.782 144.962V145.355H437.965V144.641H440.908V144.575C440.896 144.348 440.848 144.128 440.766 143.914C440.688 143.699 440.562 143.523 440.389 143.384C440.215 143.246 439.979 143.177 439.68 143.177C439.481 143.177 439.299 143.219 439.132 143.304C438.965 143.386 438.822 143.509 438.702 143.673C438.582 143.836 438.489 144.036 438.423 144.273C438.357 144.509 438.324 144.781 438.324 145.09V145.288C438.324 145.531 438.357 145.759 438.423 145.973C438.493 146.184 438.592 146.37 438.721 146.531C438.853 146.691 439.012 146.817 439.198 146.909C439.387 147 439.601 147.046 439.841 147.046C440.149 147.046 440.411 146.983 440.625 146.857C440.839 146.731 441.026 146.562 441.187 146.351L441.716 146.772C441.606 146.939 441.466 147.098 441.296 147.249C441.126 147.4 440.916 147.523 440.667 147.617C440.422 147.712 440.13 147.759 439.793 147.759ZM444.107 147.665H443.233V142.014C443.233 141.646 443.299 141.336 443.431 141.084C443.566 140.829 443.76 140.637 444.012 140.507C444.264 140.375 444.563 140.309 444.91 140.309C445.01 140.309 445.111 140.315 445.212 140.328C445.316 140.34 445.417 140.359 445.514 140.385L445.467 141.098C445.401 141.082 445.325 141.071 445.24 141.065C445.158 141.059 445.077 141.055 444.995 141.055C444.809 141.055 444.648 141.093 444.513 141.169C444.381 141.241 444.28 141.348 444.21 141.49C444.141 141.632 444.107 141.807 444.107 142.014V147.665ZM445.193 142.553V143.224H442.425V142.553H445.193ZM448.306 142.553V143.224H445.543V142.553H448.306ZM446.478 141.311H447.352V146.399C447.352 146.572 447.379 146.702 447.432 146.791C447.486 146.879 447.555 146.937 447.64 146.965C447.725 146.994 447.817 147.008 447.914 147.008C447.987 147.008 448.062 147.002 448.141 146.989C448.223 146.973 448.284 146.961 448.325 146.951L448.33 147.665C448.261 147.687 448.169 147.707 448.056 147.726C447.946 147.748 447.812 147.759 447.654 147.759C447.44 147.759 447.243 147.717 447.064 147.632C446.884 147.547 446.741 147.405 446.634 147.206C446.53 147.005 446.478 146.734 446.478 146.394V141.311Z" fill="#444444"/>
<rect x="416.543" y="244.302" width="138.478" height="105.219" rx="4.83766" fill="#D9D9D9"/>
<path d="M427.241 25.8541V32.7704H426.367V26.9454L424.605 27.5879V26.799L427.104 25.8541H427.241ZM429.92 32.3075C429.92 32.1594 429.965 32.035 430.057 31.9343C430.151 31.8303 430.286 31.7783 430.463 31.7783C430.639 31.7783 430.773 31.8303 430.864 31.9343C430.959 32.035 431.006 32.1594 431.006 32.3075C431.006 32.4523 430.959 32.5752 430.864 32.676C430.773 32.7767 430.639 32.8271 430.463 32.8271C430.286 32.8271 430.151 32.7767 430.057 32.676C429.965 32.5752 429.92 32.4523 429.92 32.3075ZM433.501 25.8919V32.7704H432.589V25.8919H433.501ZM436.382 28.9863V29.7327H433.302V28.9863H436.382ZM436.85 25.8919V26.6383H433.302V25.8919H436.85ZM438.556 28.4619V32.7704H437.682V27.6588H438.532L438.556 28.4619ZM440.152 27.6304L440.148 28.443C440.075 28.4273 440.006 28.4178 439.94 28.4147C439.877 28.4084 439.804 28.4052 439.722 28.4052C439.521 28.4052 439.343 28.4367 439.189 28.4997C439.034 28.5627 438.904 28.6509 438.796 28.7643C438.689 28.8776 438.604 29.0131 438.541 29.1706C438.481 29.3249 438.442 29.495 438.423 29.6808L438.178 29.8225C438.178 29.5138 438.207 29.2241 438.267 28.9532C438.33 28.6824 438.426 28.443 438.556 28.2351C438.685 28.0241 438.848 27.8604 439.047 27.7438C439.248 27.6241 439.488 27.5643 439.765 27.5643C439.828 27.5643 439.9 27.5722 439.982 27.5879C440.064 27.6005 440.121 27.6147 440.152 27.6304ZM440.634 30.2713V30.1626C440.634 29.7942 440.688 29.4524 440.795 29.1375C440.902 28.8194 441.056 28.5438 441.258 28.3107C441.459 28.0745 441.703 27.8918 441.99 27.7627C442.277 27.6304 442.598 27.5643 442.954 27.5643C443.313 27.5643 443.636 27.6304 443.922 27.7627C444.212 27.8918 444.458 28.0745 444.659 28.3107C444.864 28.5438 445.02 28.8194 445.127 29.1375C445.234 29.4524 445.288 29.7942 445.288 30.1626V30.2713C445.288 30.6398 445.234 30.9815 445.127 31.2965C445.02 31.6114 444.864 31.887 444.659 32.1232C444.458 32.3563 444.214 32.539 443.927 32.6712C443.644 32.8004 443.322 32.8649 442.963 32.8649C442.604 32.8649 442.281 32.8004 441.995 32.6712C441.708 32.539 441.463 32.3563 441.258 32.1232C441.056 31.887 440.902 31.6114 440.795 31.2965C440.688 30.9815 440.634 30.6398 440.634 30.2713ZM441.508 30.1626V30.2713C441.508 30.5264 441.538 30.7674 441.598 30.9941C441.658 31.2177 441.748 31.4162 441.867 31.5894C441.99 31.7626 442.143 31.8996 442.325 32.0004C442.508 32.098 442.721 32.1468 442.963 32.1468C443.203 32.1468 443.412 32.098 443.592 32.0004C443.774 31.8996 443.925 31.7626 444.045 31.5894C444.165 31.4162 444.255 31.2177 444.314 30.9941C444.377 30.7674 444.409 30.5264 444.409 30.2713V30.1626C444.409 29.9107 444.377 29.6729 444.314 29.4493C444.255 29.2225 444.163 29.0225 444.04 28.8493C443.921 28.6729 443.77 28.5343 443.587 28.4336C443.407 28.3328 443.196 28.2824 442.954 28.2824C442.714 28.2824 442.503 28.3328 442.321 28.4336C442.141 28.5343 441.99 28.6729 441.867 28.8493C441.748 29.0225 441.658 29.2225 441.598 29.4493C441.538 29.6729 441.508 29.9107 441.508 30.1626ZM447.258 28.7501V32.7704H446.384V27.6588H447.21L447.258 28.7501ZM447.05 30.0209L446.686 30.0067C446.689 29.6572 446.741 29.3343 446.842 29.0383C446.943 28.7391 447.084 28.4792 447.267 28.2588C447.45 28.0383 447.667 27.8682 447.919 27.7485C448.174 27.6257 448.456 27.5643 448.765 27.5643C449.017 27.5643 449.243 27.5989 449.445 27.6682C449.647 27.7344 449.818 27.8415 449.96 27.9895C450.105 28.1375 450.215 28.3296 450.291 28.5658C450.366 28.7989 450.404 29.0839 450.404 29.4209V32.7704H449.525V29.4115C449.525 29.1438 449.486 28.9296 449.407 28.769C449.328 28.6052 449.213 28.4871 449.062 28.4147C448.911 28.3391 448.725 28.3013 448.505 28.3013C448.288 28.3013 448.089 28.347 447.91 28.4383C447.733 28.5296 447.58 28.6556 447.451 28.8162C447.325 28.9769 447.226 29.1611 447.154 29.369C447.084 29.5737 447.05 29.791 447.05 30.0209ZM453.872 27.6588V28.3296H451.108V27.6588H453.872ZM452.043 26.4163H452.917V31.5043C452.917 31.6776 452.944 31.8083 452.998 31.8965C453.051 31.9846 453.12 32.0429 453.205 32.0713C453.291 32.0996 453.382 32.1138 453.479 32.1138C453.552 32.1138 453.628 32.1075 453.706 32.0949C453.788 32.0791 453.85 32.0665 453.89 32.0571L453.895 32.7704C453.826 32.7925 453.735 32.813 453.621 32.8319C453.511 32.8539 453.377 32.8649 453.22 32.8649C453.005 32.8649 452.809 32.8224 452.629 32.7374C452.45 32.6523 452.306 32.5106 452.199 32.3122C452.095 32.1106 452.043 31.8398 452.043 31.4996V26.4163Z" fill="#444444"/>
<path d="M425.644 258.69H426.268C426.573 258.69 426.825 258.64 427.024 258.539C427.225 258.435 427.375 258.295 427.472 258.118C427.573 257.939 427.624 257.737 427.624 257.514C427.624 257.249 427.579 257.027 427.491 256.847C427.403 256.668 427.271 256.532 427.094 256.441C426.918 256.35 426.694 256.304 426.424 256.304C426.178 256.304 425.961 256.353 425.772 256.451C425.586 256.545 425.439 256.681 425.332 256.857C425.228 257.033 425.176 257.241 425.176 257.48H424.302C424.302 257.131 424.391 256.813 424.567 256.526C424.743 256.24 424.991 256.011 425.309 255.841C425.63 255.671 426.002 255.586 426.424 255.586C426.839 255.586 427.203 255.66 427.515 255.808C427.827 255.953 428.069 256.17 428.242 256.46C428.416 256.747 428.502 257.104 428.502 257.532C428.502 257.706 428.461 257.891 428.379 258.09C428.301 258.285 428.176 258.468 428.006 258.638C427.839 258.808 427.622 258.948 427.354 259.058C427.087 259.165 426.765 259.219 426.391 259.219H425.644V258.69ZM425.644 259.408V258.884H426.391C426.828 258.884 427.19 258.936 427.477 259.039C427.764 259.143 427.989 259.282 428.153 259.455C428.32 259.628 428.436 259.819 428.502 260.027C428.572 260.232 428.606 260.436 428.606 260.641C428.606 260.962 428.551 261.247 428.441 261.496C428.334 261.745 428.181 261.956 427.983 262.129C427.787 262.302 427.557 262.433 427.293 262.521C427.028 262.609 426.74 262.654 426.428 262.654C426.129 262.654 425.847 262.611 425.583 262.526C425.321 262.441 425.09 262.318 424.888 262.158C424.687 261.994 424.529 261.794 424.416 261.558C424.302 261.318 424.246 261.046 424.246 260.74H425.12C425.12 260.98 425.172 261.189 425.276 261.369C425.383 261.548 425.534 261.688 425.729 261.789C425.928 261.887 426.161 261.935 426.428 261.935C426.696 261.935 426.926 261.89 427.118 261.798C427.313 261.704 427.463 261.562 427.567 261.373C427.674 261.184 427.727 260.947 427.727 260.66C427.727 260.373 427.668 260.139 427.548 259.956C427.428 259.77 427.258 259.633 427.038 259.545C426.82 259.454 426.564 259.408 426.268 259.408H425.644ZM429.92 262.096C429.92 261.948 429.965 261.824 430.057 261.723C430.151 261.619 430.286 261.567 430.463 261.567C430.639 261.567 430.773 261.619 430.864 261.723C430.959 261.824 431.006 261.948 431.006 262.096C431.006 262.241 430.959 262.364 430.864 262.465C430.773 262.565 430.639 262.616 430.463 262.616C430.286 262.616 430.151 262.565 430.057 262.465C429.965 262.364 429.92 262.241 429.92 262.096ZM432.589 255.681H434.866C435.382 255.681 435.819 255.759 436.174 255.917C436.534 256.074 436.806 256.307 436.992 256.616C437.181 256.921 437.275 257.298 437.275 257.745C437.275 258.06 437.211 258.348 437.082 258.61C436.956 258.868 436.773 259.088 436.534 259.271C436.297 259.451 436.014 259.584 435.683 259.673L435.428 259.772H433.288L433.278 259.03H434.894C435.222 259.03 435.494 258.973 435.711 258.86C435.929 258.743 436.093 258.588 436.203 258.392C436.313 258.197 436.368 257.981 436.368 257.745C436.368 257.48 436.316 257.249 436.212 257.051C436.108 256.852 435.945 256.699 435.721 256.592C435.5 256.482 435.215 256.427 434.866 256.427H433.501V262.559H432.589V255.681ZM436.609 262.559L434.937 259.441L435.886 259.436L437.582 262.502V262.559H436.609ZM439.368 257.447V262.559H438.489V257.447H439.368ZM438.423 256.092C438.423 255.95 438.466 255.83 438.551 255.733C438.639 255.635 438.768 255.586 438.938 255.586C439.105 255.586 439.233 255.635 439.321 255.733C439.412 255.83 439.458 255.95 439.458 256.092C439.458 256.227 439.412 256.344 439.321 256.441C439.233 256.536 439.105 256.583 438.938 256.583C438.768 256.583 438.639 256.536 438.551 256.441C438.466 256.344 438.423 256.227 438.423 256.092ZM444.083 257.447H444.877V262.45C444.877 262.901 444.785 263.285 444.603 263.603C444.42 263.921 444.165 264.162 443.837 264.326C443.513 264.493 443.138 264.576 442.713 264.576C442.536 264.576 442.329 264.548 442.089 264.491C441.853 264.438 441.62 264.345 441.39 264.213C441.163 264.083 440.973 263.909 440.818 263.688L441.277 263.169C441.491 263.427 441.714 263.606 441.948 263.707C442.184 263.808 442.417 263.858 442.647 263.858C442.924 263.858 443.163 263.806 443.365 263.702C443.566 263.598 443.722 263.444 443.833 263.239C443.946 263.038 444.003 262.789 444.003 262.493V258.572L444.083 257.447ZM440.563 260.06V259.961C440.563 259.57 440.609 259.216 440.7 258.898C440.795 258.577 440.929 258.301 441.102 258.071C441.278 257.841 441.491 257.665 441.74 257.542C441.988 257.416 442.269 257.353 442.581 257.353C442.902 257.353 443.182 257.41 443.422 257.523C443.664 257.633 443.869 257.795 444.036 258.01C444.206 258.221 444.34 258.476 444.437 258.775C444.535 259.074 444.603 259.413 444.64 259.791V260.225C444.606 260.6 444.538 260.937 444.437 261.236C444.34 261.535 444.206 261.791 444.036 262.002C443.869 262.213 443.664 262.375 443.422 262.488C443.179 262.598 442.896 262.654 442.571 262.654C442.266 262.654 441.988 262.589 441.74 262.46C441.494 262.331 441.283 262.15 441.107 261.917C440.93 261.684 440.795 261.41 440.7 261.095C440.609 260.776 440.563 260.432 440.563 260.06ZM441.437 259.961V260.06C441.437 260.315 441.463 260.554 441.513 260.778C441.566 261.002 441.647 261.198 441.754 261.369C441.864 261.539 442.004 261.672 442.174 261.77C442.344 261.865 442.548 261.912 442.784 261.912C443.073 261.912 443.313 261.85 443.502 261.728C443.691 261.605 443.84 261.443 443.951 261.241C444.064 261.039 444.152 260.821 444.215 260.584V259.446C444.181 259.273 444.127 259.106 444.055 258.945C443.985 258.781 443.894 258.636 443.781 258.51C443.67 258.381 443.533 258.279 443.37 258.203C443.206 258.128 443.014 258.09 442.793 258.09C442.554 258.09 442.348 258.14 442.174 258.241C442.004 258.339 441.864 258.474 441.754 258.647C441.647 258.817 441.566 259.016 441.513 259.243C441.463 259.466 441.437 259.706 441.437 259.961ZM447.078 255.303V262.559H446.204V255.303H447.078ZM446.87 259.81L446.506 259.795C446.51 259.446 446.562 259.123 446.662 258.827C446.763 258.528 446.905 258.268 447.088 258.047C447.27 257.827 447.488 257.657 447.739 257.537C447.995 257.414 448.276 257.353 448.585 257.353C448.837 257.353 449.064 257.388 449.265 257.457C449.467 257.523 449.639 257.63 449.78 257.778C449.925 257.926 450.035 258.118 450.111 258.354C450.187 258.588 450.224 258.873 450.224 259.21V262.559H449.346V259.2C449.346 258.932 449.306 258.718 449.228 258.558C449.149 258.394 449.034 258.276 448.883 258.203C448.732 258.128 448.546 258.09 448.325 258.09C448.108 258.09 447.91 258.136 447.73 258.227C447.554 258.318 447.401 258.444 447.272 258.605C447.146 258.765 447.047 258.95 446.974 259.158C446.905 259.362 446.87 259.58 446.87 259.81ZM453.673 257.447V258.118H450.909V257.447H453.673ZM451.845 256.205H452.719V261.293C452.719 261.466 452.746 261.597 452.799 261.685C452.853 261.773 452.922 261.832 453.007 261.86C453.092 261.888 453.183 261.902 453.281 261.902C453.354 261.902 453.429 261.896 453.508 261.884C453.59 261.868 453.651 261.855 453.692 261.846L453.697 262.559C453.628 262.581 453.536 262.602 453.423 262.62C453.313 262.643 453.179 262.654 453.021 262.654C452.807 262.654 452.61 262.611 452.431 262.526C452.251 262.441 452.108 262.299 452.001 262.101C451.897 261.899 451.845 261.628 451.845 261.288V256.205Z" fill="#444444"/>
<rect x="-5.54297" y="-6.10352e-05" width="568.871" height="410.297" fill="black" fill-opacity="0.77"/>
<g filter="url(#filter0_d_4150_7451)">
<rect x="53" y="355" width="288" height="49" rx="24.5" fill="white"/>
</g>
<rect x="74" y="364" width="120.941" height="31.4448" rx="7.25648" fill="#544BF0"/>
<g clip-path="url(#clip1_4150_7451)">
<path d="M100.832 374.885H103.856L105.367 376.699H107.182C107.502 376.699 107.81 376.826 108.037 377.053C108.264 377.28 108.391 377.588 108.391 377.908V383.351C108.391 383.351 108.43 383.916 108.089 384.258C107.747 384.599 107.182 384.56 107.182 384.56H102.344H97.5063C97.1855 384.56 96.8779 384.433 96.6511 384.206C96.4243 383.979 96.2969 383.671 96.2969 383.351V377.908C96.2969 377.588 96.4243 377.28 96.6511 377.053C96.8779 376.826 97.1855 376.699 97.5063 376.699H99.3204L100.832 374.885Z" stroke="white" stroke-width="1.20941" stroke-linecap="round" stroke-linejoin="round"/>
<path d="M102.345 382.141C103.347 382.141 104.159 381.329 104.159 380.327C104.159 379.325 103.347 378.513 102.345 378.513C101.343 378.513 100.531 379.325 100.531 380.327C100.531 381.329 101.343 382.141 102.345 382.141Z" stroke="white" stroke-width="1.20941" stroke-linecap="round" stroke-linejoin="round"/>
</g>
<path d="M119.835 381.508C119.835 381.331 119.807 381.173 119.752 381.035C119.701 380.898 119.609 380.772 119.475 380.658C119.341 380.543 119.152 380.433 118.908 380.327C118.668 380.217 118.361 380.104 117.987 379.99C117.577 379.864 117.199 379.724 116.853 379.571C116.51 379.413 116.211 379.232 115.955 379.028C115.699 378.819 115.5 378.581 115.359 378.313C115.217 378.041 115.146 377.728 115.146 377.374C115.146 377.024 115.219 376.705 115.365 376.418C115.514 376.13 115.725 375.882 115.997 375.673C116.272 375.461 116.597 375.297 116.971 375.183C117.345 375.065 117.758 375.006 118.211 375.006C118.849 375.006 119.398 375.124 119.859 375.36C120.323 375.597 120.679 375.914 120.927 376.311C121.179 376.709 121.305 377.148 121.305 377.628H119.835C119.835 377.345 119.774 377.095 119.652 376.878C119.534 376.658 119.353 376.484 119.109 376.358C118.868 376.232 118.563 376.169 118.193 376.169C117.843 376.169 117.552 376.223 117.319 376.329C117.087 376.435 116.914 376.579 116.8 376.76C116.685 376.941 116.628 377.146 116.628 377.374C116.628 377.536 116.666 377.683 116.741 377.817C116.815 377.947 116.93 378.069 117.083 378.183C117.237 378.293 117.43 378.398 117.662 378.496C117.894 378.595 118.168 378.689 118.483 378.78C118.959 378.921 119.374 379.079 119.729 379.252C120.083 379.421 120.378 379.614 120.614 379.831C120.851 380.047 121.028 380.293 121.146 380.569C121.264 380.841 121.323 381.15 121.323 381.496C121.323 381.858 121.25 382.185 121.105 382.476C120.959 382.764 120.75 383.01 120.479 383.215C120.211 383.415 119.888 383.571 119.51 383.681C119.136 383.787 118.719 383.841 118.258 383.841C117.845 383.841 117.437 383.785 117.036 383.675C116.638 383.565 116.276 383.398 115.949 383.173C115.623 382.945 115.363 382.661 115.17 382.323C114.977 381.98 114.88 381.581 114.88 381.124H116.363C116.363 381.404 116.41 381.642 116.504 381.839C116.603 382.035 116.739 382.197 116.912 382.323C117.085 382.445 117.286 382.535 117.514 382.594C117.746 382.654 117.994 382.683 118.258 382.683C118.605 382.683 118.894 382.634 119.126 382.535C119.363 382.437 119.54 382.299 119.658 382.122C119.776 381.945 119.835 381.74 119.835 381.508ZM125.421 377.333V378.372H121.819V377.333H125.421ZM122.859 375.768H124.282V381.957C124.282 382.154 124.309 382.305 124.364 382.411C124.423 382.514 124.504 382.583 124.606 382.618C124.709 382.654 124.829 382.671 124.967 382.671C125.065 382.671 125.16 382.665 125.25 382.654C125.341 382.642 125.414 382.63 125.469 382.618L125.475 383.705C125.356 383.74 125.219 383.772 125.061 383.799C124.908 383.827 124.731 383.841 124.53 383.841C124.203 383.841 123.914 383.783 123.662 383.669C123.41 383.551 123.213 383.36 123.071 383.096C122.929 382.833 122.859 382.482 122.859 382.045V375.768ZM130.122 382.441V379.394C130.122 379.165 130.081 378.969 129.998 378.803C129.915 378.638 129.789 378.51 129.62 378.419C129.455 378.329 129.246 378.284 128.994 378.284C128.762 378.284 128.561 378.323 128.392 378.402C128.223 378.48 128.091 378.587 127.996 378.721C127.902 378.854 127.854 379.006 127.854 379.175H126.437C126.437 378.923 126.498 378.679 126.62 378.443C126.742 378.207 126.919 377.996 127.152 377.811C127.384 377.626 127.662 377.48 127.984 377.374C128.307 377.268 128.669 377.215 129.071 377.215C129.551 377.215 129.976 377.295 130.346 377.457C130.72 377.618 131.014 377.862 131.226 378.189C131.443 378.512 131.551 378.917 131.551 379.406V382.246C131.551 382.537 131.571 382.799 131.61 383.031C131.654 383.26 131.715 383.459 131.793 383.628V383.722H130.335C130.268 383.569 130.215 383.374 130.175 383.138C130.14 382.898 130.122 382.665 130.122 382.441ZM130.329 379.837L130.341 380.717H129.319C129.055 380.717 128.823 380.742 128.622 380.793C128.421 380.841 128.254 380.911 128.12 381.006C127.986 381.1 127.886 381.215 127.819 381.348C127.752 381.482 127.719 381.634 127.719 381.803C127.719 381.972 127.758 382.128 127.837 382.27C127.915 382.407 128.03 382.516 128.179 382.594C128.333 382.673 128.518 382.713 128.734 382.713C129.026 382.713 129.28 382.654 129.496 382.535C129.717 382.413 129.89 382.266 130.016 382.093C130.142 381.915 130.209 381.748 130.217 381.591L130.677 382.222C130.63 382.384 130.549 382.557 130.435 382.742C130.321 382.927 130.171 383.104 129.986 383.274C129.805 383.439 129.587 383.575 129.331 383.681C129.079 383.787 128.787 383.841 128.457 383.841C128.039 383.841 127.667 383.758 127.341 383.592C127.014 383.423 126.758 383.197 126.573 382.913C126.388 382.626 126.295 382.301 126.295 381.939C126.295 381.6 126.358 381.301 126.484 381.041C126.614 380.778 126.803 380.557 127.051 380.38C127.303 380.203 127.61 380.069 127.973 379.978C128.335 379.884 128.748 379.837 129.213 379.837H130.329ZM134.468 378.549V383.722H133.045V377.333H134.403L134.468 378.549ZM136.423 377.291L136.411 378.614C136.325 378.599 136.23 378.587 136.128 378.579C136.029 378.571 135.931 378.567 135.833 378.567C135.588 378.567 135.374 378.602 135.189 378.673C135.004 378.74 134.848 378.839 134.722 378.969C134.6 379.095 134.506 379.248 134.439 379.429C134.372 379.61 134.333 379.813 134.321 380.037L133.996 380.061C133.996 379.66 134.035 379.288 134.114 378.945C134.193 378.602 134.311 378.301 134.468 378.041C134.63 377.782 134.831 377.579 135.071 377.433C135.315 377.288 135.596 377.215 135.915 377.215C136.002 377.215 136.094 377.223 136.193 377.238C136.295 377.254 136.372 377.272 136.423 377.291ZM140.539 377.333V378.372H136.937V377.333H140.539ZM137.976 375.768H139.399V381.957C139.399 382.154 139.427 382.305 139.482 382.411C139.541 382.514 139.622 382.583 139.724 382.618C139.827 382.654 139.947 382.671 140.084 382.671C140.183 382.671 140.277 382.665 140.368 382.654C140.458 382.642 140.531 382.63 140.586 382.618L140.592 383.705C140.474 383.74 140.336 383.772 140.179 383.799C140.025 383.827 139.848 383.841 139.647 383.841C139.321 383.841 139.031 383.783 138.779 383.669C138.527 383.551 138.331 383.36 138.189 383.096C138.047 382.833 137.976 382.482 137.976 382.045V375.768ZM149.314 381.508C149.314 381.331 149.287 381.173 149.232 381.035C149.181 380.898 149.088 380.772 148.954 380.658C148.82 380.543 148.631 380.433 148.387 380.327C148.147 380.217 147.84 380.104 147.466 379.99C147.057 379.864 146.679 379.724 146.332 379.571C145.99 379.413 145.691 379.232 145.435 379.028C145.179 378.819 144.98 378.581 144.838 378.313C144.696 378.041 144.626 377.728 144.626 377.374C144.626 377.024 144.698 376.705 144.844 376.418C144.994 376.13 145.204 375.882 145.476 375.673C145.752 375.461 146.076 375.297 146.45 375.183C146.824 375.065 147.238 375.006 147.69 375.006C148.328 375.006 148.877 375.124 149.338 375.36C149.803 375.597 150.159 375.914 150.407 376.311C150.659 376.709 150.785 377.148 150.785 377.628H149.314C149.314 377.345 149.253 377.095 149.131 376.878C149.013 376.658 148.832 376.484 148.588 376.358C148.348 376.232 148.043 376.169 147.673 376.169C147.322 376.169 147.031 376.223 146.799 376.329C146.566 376.435 146.393 376.579 146.279 376.76C146.165 376.941 146.108 377.146 146.108 377.374C146.108 377.536 146.145 377.683 146.22 377.817C146.295 377.947 146.409 378.069 146.563 378.183C146.716 378.293 146.909 378.398 147.141 378.496C147.374 378.595 147.647 378.689 147.962 378.78C148.438 378.921 148.854 379.079 149.208 379.252C149.562 379.421 149.858 379.614 150.094 379.831C150.33 380.047 150.507 380.293 150.625 380.569C150.744 380.841 150.803 381.15 150.803 381.496C150.803 381.858 150.73 382.185 150.584 382.476C150.438 382.764 150.23 383.01 149.958 383.215C149.69 383.415 149.368 383.571 148.99 383.681C148.616 383.787 148.198 383.841 147.738 383.841C147.324 383.841 146.917 383.785 146.515 383.675C146.118 383.565 145.755 383.398 145.429 383.173C145.102 382.945 144.842 382.661 144.649 382.323C144.456 381.98 144.36 381.581 144.36 381.124H145.842C145.842 381.404 145.889 381.642 145.984 381.839C146.082 382.035 146.218 382.197 146.391 382.323C146.565 382.445 146.765 382.535 146.994 382.594C147.226 382.654 147.474 382.683 147.738 382.683C148.084 382.683 148.374 382.634 148.606 382.535C148.842 382.437 149.019 382.299 149.137 382.122C149.255 381.945 149.314 381.74 149.314 381.508ZM154.582 382.707C154.814 382.707 155.023 382.661 155.208 382.571C155.397 382.476 155.549 382.346 155.663 382.181C155.781 382.016 155.846 381.825 155.858 381.608H157.198C157.19 382.022 157.068 382.398 156.832 382.736C156.596 383.075 156.283 383.344 155.893 383.545C155.503 383.742 155.072 383.841 154.6 383.841C154.112 383.841 153.686 383.758 153.324 383.592C152.962 383.423 152.661 383.191 152.421 382.896C152.181 382.6 151.999 382.26 151.877 381.874C151.759 381.488 151.7 381.075 151.7 380.634V380.427C151.7 379.986 151.759 379.573 151.877 379.187C151.999 378.797 152.181 378.455 152.421 378.16C152.661 377.864 152.962 377.634 153.324 377.469C153.686 377.299 154.11 377.215 154.594 377.215C155.106 377.215 155.554 377.317 155.94 377.522C156.326 377.723 156.629 378.004 156.85 378.366C157.074 378.725 157.19 379.142 157.198 379.618H155.858C155.846 379.382 155.787 379.169 155.68 378.98C155.578 378.788 155.432 378.634 155.243 378.52C155.058 378.406 154.836 378.349 154.576 378.349C154.289 378.349 154.051 378.408 153.862 378.526C153.673 378.64 153.525 378.797 153.419 378.998C153.312 379.195 153.236 379.417 153.188 379.665C153.145 379.91 153.123 380.163 153.123 380.427V380.634C153.123 380.898 153.145 381.154 153.188 381.402C153.232 381.65 153.306 381.872 153.413 382.069C153.523 382.262 153.673 382.417 153.862 382.535C154.051 382.65 154.291 382.707 154.582 382.707ZM161.893 382.441V379.394C161.893 379.165 161.851 378.969 161.769 378.803C161.686 378.638 161.56 378.51 161.391 378.419C161.226 378.329 161.017 378.284 160.765 378.284C160.533 378.284 160.332 378.323 160.163 378.402C159.993 378.48 159.861 378.587 159.767 378.721C159.672 378.854 159.625 379.006 159.625 379.175H158.208C158.208 378.923 158.269 378.679 158.391 378.443C158.513 378.207 158.69 377.996 158.922 377.811C159.155 377.626 159.432 377.48 159.755 377.374C160.078 377.268 160.44 377.215 160.842 377.215C161.322 377.215 161.747 377.295 162.117 377.457C162.491 377.618 162.785 377.862 162.997 378.189C163.214 378.512 163.322 378.917 163.322 379.406V382.246C163.322 382.537 163.342 382.799 163.381 383.031C163.424 383.26 163.485 383.459 163.564 383.628V383.722H162.105C162.038 383.569 161.985 383.374 161.946 383.138C161.911 382.898 161.893 382.665 161.893 382.441ZM162.1 379.837L162.111 380.717H161.09C160.826 380.717 160.594 380.742 160.393 380.793C160.192 380.841 160.025 380.911 159.891 381.006C159.757 381.1 159.657 381.215 159.59 381.348C159.523 381.482 159.489 381.634 159.489 381.803C159.489 381.972 159.529 382.128 159.607 382.27C159.686 382.407 159.8 382.516 159.95 382.594C160.104 382.673 160.289 382.713 160.505 382.713C160.796 382.713 161.05 382.654 161.267 382.535C161.487 382.413 161.661 382.266 161.787 382.093C161.913 381.915 161.979 381.748 161.987 381.591L162.448 382.222C162.401 382.384 162.32 382.557 162.206 382.742C162.092 382.927 161.942 383.104 161.757 383.274C161.576 383.439 161.357 383.575 161.102 383.681C160.85 383.787 160.558 383.841 160.228 383.841C159.81 383.841 159.438 383.758 159.111 383.592C158.785 383.423 158.529 383.197 158.344 382.913C158.159 382.626 158.066 382.301 158.066 381.939C158.066 381.6 158.129 381.301 158.255 381.041C158.385 380.778 158.574 380.557 158.822 380.38C159.074 380.203 159.381 380.069 159.743 379.978C160.105 379.884 160.519 379.837 160.983 379.837H162.1ZM166.221 378.697V383.722H164.798V377.333H166.139L166.221 378.697ZM165.968 380.291L165.507 380.286C165.511 379.833 165.574 379.417 165.696 379.039C165.822 378.662 165.995 378.337 166.216 378.065C166.44 377.793 166.708 377.585 167.019 377.439C167.33 377.29 167.676 377.215 168.058 377.215C168.365 377.215 168.643 377.258 168.891 377.345C169.143 377.427 169.357 377.563 169.534 377.752C169.715 377.941 169.853 378.187 169.948 378.49C170.042 378.789 170.089 379.158 170.089 379.595V383.722H168.66V379.589C168.66 379.282 168.615 379.039 168.525 378.862C168.438 378.681 168.31 378.553 168.141 378.478C167.975 378.4 167.769 378.36 167.521 378.36C167.277 378.36 167.058 378.412 166.865 378.514C166.672 378.616 166.509 378.756 166.375 378.933C166.245 379.11 166.145 379.315 166.074 379.547C166.003 379.78 165.968 380.028 165.968 380.291Z" fill="#FDFCFF"/>
<rect x="204.92" y="364.302" width="114.934" height="30.8401" rx="6.95413" fill="white"/>
<rect x="204.92" y="364.302" width="114.934" height="30.8401" rx="6.95413" fill="#544BF0" fill-opacity="0.04"/>
<rect x="204.92" y="364.302" width="114.934" height="30.8401" rx="6.95413" fill="black" fill-opacity="0.01"/>
<rect x="204.92" y="364.302" width="114.934" height="30.8401" rx="6.95413" stroke="#544BF0" stroke-width="0.604707"/>
<path d="M220.947 383.199C220.699 383.199 220.493 382.994 220.493 382.746V380.212L220.058 380.647C219.882 380.823 219.592 380.823 219.417 380.647C219.241 380.472 219.241 380.182 219.417 380.006L220.626 378.797C220.753 378.67 220.953 378.628 221.122 378.7C221.291 378.767 221.4 378.936 221.4 379.118V382.746C221.4 382.994 221.195 383.199 220.947 383.199Z" fill="#544BF0"/>
<path d="M222.158 380.78C222.043 380.78 221.928 380.738 221.837 380.647L220.628 379.438C220.452 379.263 220.452 378.972 220.628 378.797C220.803 378.622 221.093 378.622 221.269 378.797L222.478 380.006C222.653 380.182 222.653 380.472 222.478 380.647C222.387 380.738 222.272 380.78 222.158 380.78Z" fill="#544BF0"/>
<path d="M224.576 386.223H220.948C217.665 386.223 216.262 384.82 216.262 381.536V377.908C216.262 374.625 217.665 373.222 220.948 373.222H223.972C224.22 373.222 224.425 373.427 224.425 373.675C224.425 373.923 224.22 374.129 223.972 374.129H220.948C218.16 374.129 217.169 375.12 217.169 377.908V381.536C217.169 384.324 218.16 385.316 220.948 385.316H224.576C227.364 385.316 228.356 384.324 228.356 381.536V378.513C228.356 378.265 228.561 378.059 228.809 378.059C229.057 378.059 229.263 378.265 229.263 378.513V381.536C229.263 384.82 227.86 386.223 224.576 386.223Z" fill="#544BF0"/>
<path d="M228.807 378.966H226.388C224.32 378.966 223.516 378.162 223.516 376.094V373.675C223.516 373.494 223.624 373.324 223.794 373.258C223.963 373.185 224.157 373.228 224.29 373.355L229.127 378.192C229.254 378.319 229.297 378.519 229.224 378.688C229.151 378.858 228.988 378.966 228.807 378.966ZM224.423 374.77V376.094C224.423 377.654 224.828 378.059 226.388 378.059H227.712L224.423 374.77Z" fill="#544BF0"/>
<path d="M240.812 375.806H242.01V381.013C242.01 381.567 241.88 382.058 241.62 382.486C241.359 382.911 240.994 383.246 240.522 383.49C240.05 383.733 239.498 383.854 238.864 383.854C238.232 383.854 237.681 383.733 237.209 383.49C236.738 383.246 236.372 382.911 236.112 382.486C235.851 382.058 235.721 381.567 235.721 381.013V375.806H236.916V380.916C236.916 381.274 236.994 381.593 237.151 381.871C237.311 382.149 237.537 382.368 237.828 382.528C238.119 382.685 238.464 382.764 238.864 382.764C239.266 382.764 239.612 382.685 239.904 382.528C240.197 382.368 240.421 382.149 240.576 381.871C240.733 381.593 240.812 381.274 240.812 380.916V375.806ZM243.654 385.949V377.785H244.783V378.748H244.879C244.946 378.624 245.043 378.481 245.169 378.319C245.295 378.156 245.471 378.015 245.695 377.894C245.919 377.77 246.215 377.708 246.584 377.708C247.063 377.708 247.491 377.829 247.867 378.071C248.243 378.314 248.538 378.663 248.752 379.119C248.969 379.575 249.077 380.124 249.077 380.765C249.077 381.407 248.97 381.957 248.756 382.416C248.542 382.872 248.248 383.224 247.875 383.471C247.501 383.716 247.075 383.838 246.595 383.838C246.235 383.838 245.94 383.778 245.71 383.657C245.483 383.536 245.306 383.394 245.177 383.232C245.048 383.069 244.949 382.925 244.879 382.799H244.81V385.949H243.654ZM244.786 380.754C244.786 381.171 244.847 381.537 244.968 381.852C245.089 382.166 245.264 382.412 245.494 382.59C245.723 382.765 246.004 382.853 246.336 382.853C246.682 382.853 246.97 382.761 247.202 382.578C247.434 382.393 247.609 382.141 247.728 381.825C247.849 381.508 247.91 381.151 247.91 380.754C247.91 380.362 247.85 380.01 247.732 379.699C247.616 379.387 247.441 379.141 247.206 378.96C246.974 378.78 246.684 378.69 246.336 378.69C246.001 378.69 245.718 378.776 245.486 378.949C245.257 379.121 245.083 379.362 244.964 379.672C244.846 379.981 244.786 380.342 244.786 380.754ZM251.527 375.806V383.722H250.372V375.806H251.527ZM255.583 383.842C255.027 383.842 254.541 383.715 254.126 383.46C253.711 383.204 253.389 382.848 253.16 382.389C252.93 381.93 252.816 381.394 252.816 380.781C252.816 380.165 252.93 379.626 253.16 379.165C253.389 378.704 253.711 378.346 254.126 378.091C254.541 377.836 255.027 377.708 255.583 377.708C256.14 377.708 256.626 377.836 257.04 378.091C257.455 378.346 257.777 378.704 258.007 379.165C258.236 379.626 258.351 380.165 258.351 380.781C258.351 381.394 258.236 381.93 258.007 382.389C257.777 382.848 257.455 383.204 257.04 383.46C256.626 383.715 256.14 383.842 255.583 383.842ZM255.587 382.872C255.948 382.872 256.247 382.777 256.484 382.586C256.721 382.395 256.896 382.141 257.009 381.825C257.125 381.508 257.183 381.158 257.183 380.777C257.183 380.398 257.125 380.05 257.009 379.733C256.896 379.414 256.721 379.157 256.484 378.964C256.247 378.771 255.948 378.674 255.587 378.674C255.224 378.674 254.922 378.771 254.683 378.964C254.445 379.157 254.269 379.414 254.153 379.733C254.04 380.05 253.983 380.398 253.983 380.777C253.983 381.158 254.04 381.508 254.153 381.825C254.269 382.141 254.445 382.395 254.683 382.586C254.922 382.777 255.224 382.872 255.587 382.872ZM261.369 383.854C260.992 383.854 260.652 383.784 260.348 383.645C260.044 383.503 259.803 383.299 259.625 383.031C259.45 382.763 259.362 382.434 259.362 382.045C259.362 381.71 259.427 381.434 259.556 381.218C259.685 381.001 259.859 380.83 260.078 380.704C260.297 380.577 260.541 380.482 260.812 380.418C261.083 380.353 261.358 380.304 261.639 380.271C261.995 380.229 262.283 380.196 262.505 380.17C262.727 380.142 262.888 380.097 262.988 380.035C263.089 379.973 263.139 379.873 263.139 379.733V379.706C263.139 379.369 263.044 379.107 262.853 378.922C262.665 378.736 262.384 378.643 262.01 378.643C261.621 378.643 261.314 378.73 261.09 378.902C260.869 379.072 260.715 379.262 260.63 379.471L259.544 379.223C259.673 378.862 259.861 378.571 260.108 378.35C260.358 378.125 260.646 377.963 260.97 377.863C261.295 377.76 261.637 377.708 261.995 377.708C262.232 377.708 262.483 377.736 262.749 377.793C263.017 377.847 263.266 377.948 263.498 378.095C263.733 378.241 263.925 378.451 264.074 378.725C264.224 378.995 264.299 379.347 264.299 379.78V383.722H263.17V382.911H263.123C263.049 383.06 262.937 383.207 262.787 383.351C262.638 383.496 262.446 383.615 262.211 383.711C261.977 383.806 261.696 383.854 261.369 383.854ZM261.62 382.926C261.939 382.926 262.213 382.863 262.439 382.737C262.669 382.61 262.843 382.446 262.961 382.242C263.082 382.036 263.143 381.816 263.143 381.581V380.816C263.102 380.857 263.022 380.896 262.903 380.932C262.787 380.965 262.654 380.995 262.505 381.021C262.356 381.044 262.21 381.066 262.068 381.086C261.926 381.104 261.808 381.12 261.713 381.133C261.488 381.161 261.284 381.209 261.098 381.276C260.915 381.343 260.768 381.439 260.657 381.566C260.549 381.689 260.495 381.854 260.495 382.06C260.495 382.346 260.601 382.563 260.812 382.71C261.023 382.854 261.293 382.926 261.62 382.926ZM268.06 383.838C267.581 383.838 267.153 383.716 266.777 383.471C266.403 383.224 266.11 382.872 265.896 382.416C265.685 381.957 265.579 381.407 265.579 380.765C265.579 380.124 265.686 379.575 265.9 379.119C266.116 378.663 266.413 378.314 266.789 378.071C267.165 377.829 267.591 377.708 268.068 377.708C268.437 377.708 268.733 377.77 268.957 377.894C269.184 378.015 269.359 378.156 269.483 378.319C269.609 378.481 269.707 378.624 269.777 378.748H269.846V375.806H271.002V383.722H269.873V382.799H269.777C269.707 382.925 269.607 383.069 269.475 383.232C269.346 383.394 269.168 383.536 268.942 383.657C268.715 383.778 268.421 383.838 268.06 383.838ZM268.316 382.853C268.648 382.853 268.929 382.765 269.158 382.59C269.39 382.412 269.565 382.166 269.684 381.852C269.805 381.537 269.866 381.171 269.866 380.754C269.866 380.342 269.806 379.981 269.688 379.672C269.569 379.362 269.395 379.121 269.166 378.949C268.937 378.776 268.653 378.69 268.316 378.69C267.968 378.69 267.678 378.78 267.446 378.96C267.214 379.141 267.039 379.387 266.92 379.699C266.804 380.01 266.746 380.362 266.746 380.754C266.746 381.151 266.805 381.508 266.924 381.825C267.043 382.141 267.218 382.393 267.45 382.578C267.684 382.761 267.973 382.853 268.316 382.853ZM276.819 375.806V383.722H275.625V375.806H276.819ZM278.466 383.722V377.785H279.575V378.752H279.649C279.772 378.424 279.975 378.169 280.255 377.986C280.536 377.801 280.873 377.708 281.264 377.708C281.661 377.708 281.994 377.801 282.262 377.986C282.532 378.172 282.732 378.427 282.861 378.752H282.923C283.064 378.435 283.29 378.182 283.599 377.994C283.908 377.803 284.277 377.708 284.704 377.708C285.243 377.708 285.682 377.877 286.023 378.214C286.365 378.552 286.537 379.061 286.537 379.741V383.722H285.381V379.849C285.381 379.447 285.271 379.156 285.052 378.976C284.833 378.795 284.572 378.705 284.268 378.705C283.891 378.705 283.599 378.821 283.39 379.053C283.182 379.282 283.077 379.578 283.077 379.938V383.722H281.925V379.776C281.925 379.454 281.825 379.195 281.624 378.999C281.423 378.803 281.161 378.705 280.839 378.705C280.62 378.705 280.418 378.763 280.232 378.879C280.049 378.993 279.901 379.151 279.788 379.355C279.677 379.558 279.622 379.794 279.622 380.062V383.722H278.466ZM289.813 383.854C289.437 383.854 289.097 383.784 288.793 383.645C288.489 383.503 288.248 383.299 288.07 383.031C287.895 382.763 287.807 382.434 287.807 382.045C287.807 381.71 287.872 381.434 288.001 381.218C288.129 381.001 288.303 380.83 288.522 380.704C288.741 380.577 288.986 380.482 289.257 380.418C289.527 380.353 289.803 380.304 290.084 380.271C290.44 380.229 290.728 380.196 290.95 380.17C291.171 380.142 291.333 380.097 291.433 380.035C291.534 379.973 291.584 379.873 291.584 379.733V379.706C291.584 379.369 291.488 379.107 291.298 378.922C291.11 378.736 290.829 378.643 290.455 378.643C290.066 378.643 289.759 378.73 289.535 378.902C289.314 379.072 289.16 379.262 289.075 379.471L287.989 379.223C288.118 378.862 288.306 378.571 288.553 378.35C288.803 378.125 289.091 377.963 289.415 377.863C289.74 377.76 290.081 377.708 290.44 377.708C290.677 377.708 290.928 377.736 291.193 377.793C291.461 377.847 291.711 377.948 291.943 378.095C292.178 378.241 292.37 378.451 292.519 378.725C292.669 378.995 292.743 379.347 292.743 379.78V383.722H291.615V382.911H291.568C291.494 383.06 291.381 383.207 291.232 383.351C291.083 383.496 290.891 383.615 290.656 383.711C290.422 383.806 290.141 383.854 289.813 383.854ZM290.065 382.926C290.384 382.926 290.657 382.863 290.884 382.737C291.113 382.61 291.287 382.446 291.406 382.242C291.527 382.036 291.588 381.816 291.588 381.581V380.816C291.546 380.857 291.467 380.896 291.348 380.932C291.232 380.965 291.099 380.995 290.95 381.021C290.8 381.044 290.655 381.066 290.513 381.086C290.371 381.104 290.253 381.12 290.157 381.133C289.933 381.161 289.728 381.209 289.543 381.276C289.36 381.343 289.213 381.439 289.102 381.566C288.994 381.689 288.94 381.854 288.94 382.06C288.94 382.346 289.046 382.563 289.257 382.71C289.468 382.854 289.737 382.926 290.065 382.926ZM296.772 386.073C296.3 386.073 295.895 386.011 295.554 385.887C295.217 385.763 294.941 385.6 294.727 385.396C294.513 385.193 294.354 384.97 294.248 384.727L295.241 384.318C295.311 384.431 295.404 384.551 295.52 384.677C295.638 384.806 295.798 384.916 295.999 385.006C296.202 385.096 296.464 385.141 296.784 385.141C297.222 385.141 297.584 385.034 297.87 384.82C298.156 384.609 298.299 384.271 298.299 383.807V382.64H298.225C298.156 382.766 298.055 382.907 297.924 383.061C297.795 383.216 297.617 383.35 297.39 383.463C297.164 383.577 296.869 383.634 296.505 383.634C296.036 383.634 295.614 383.524 295.237 383.305C294.864 383.083 294.567 382.757 294.348 382.327C294.132 381.894 294.024 381.362 294.024 380.731C294.024 380.099 294.131 379.558 294.345 379.107C294.561 378.656 294.857 378.311 295.234 378.071C295.61 377.829 296.036 377.708 296.513 377.708C296.881 377.708 297.179 377.77 297.406 377.894C297.633 378.015 297.809 378.156 297.935 378.319C298.064 378.481 298.163 378.624 298.233 378.748H298.318V377.785H299.451V383.854C299.451 384.364 299.332 384.783 299.095 385.11C298.858 385.437 298.537 385.68 298.133 385.837C297.731 385.994 297.277 386.073 296.772 386.073ZM296.76 382.675C297.093 382.675 297.374 382.598 297.603 382.443C297.835 382.286 298.01 382.062 298.129 381.77C298.25 381.477 298.31 381.125 298.31 380.715C298.31 380.316 298.251 379.964 298.133 379.66C298.014 379.356 297.84 379.119 297.611 378.949C297.381 378.776 297.098 378.69 296.76 378.69C296.413 378.69 296.123 378.78 295.891 378.96C295.659 379.138 295.484 379.38 295.365 379.687C295.249 379.994 295.191 380.336 295.191 380.715C295.191 381.104 295.25 381.446 295.369 381.74C295.487 382.033 295.663 382.263 295.895 382.428C296.129 382.592 296.418 382.675 296.76 382.675ZM303.559 383.842C302.975 383.842 302.471 383.717 302.048 383.467C301.628 383.215 301.303 382.86 301.074 382.404C300.847 381.946 300.734 381.408 300.734 380.793C300.734 380.184 300.847 379.648 301.074 379.185C301.303 378.721 301.623 378.359 302.033 378.098C302.445 377.838 302.927 377.708 303.478 377.708C303.813 377.708 304.138 377.763 304.452 377.874C304.767 377.985 305.049 378.159 305.299 378.396C305.549 378.633 305.746 378.941 305.89 379.32C306.035 379.696 306.107 380.153 306.107 380.692V381.102H301.387V380.236H304.974C304.974 379.932 304.912 379.663 304.789 379.428C304.665 379.191 304.491 379.004 304.267 378.868C304.045 378.731 303.785 378.663 303.486 378.663C303.161 378.663 302.878 378.743 302.636 378.902C302.396 379.06 302.21 379.266 302.079 379.521C301.95 379.773 301.886 380.048 301.886 380.344V381.021C301.886 381.417 301.955 381.755 302.095 382.033C302.236 382.312 302.433 382.524 302.686 382.671C302.938 382.815 303.234 382.888 303.571 382.888C303.79 382.888 303.99 382.857 304.17 382.795C304.351 382.73 304.506 382.635 304.638 382.509C304.769 382.382 304.87 382.227 304.939 382.041L306.033 382.238C305.946 382.56 305.788 382.842 305.562 383.085C305.338 383.324 305.055 383.511 304.715 383.645C304.378 383.777 303.992 383.842 303.559 383.842Z" fill="#544BF0"/>
</g>
<defs>
<filter id="filter0_d_4150_7451" x="17.5149" y="319.515" width="358.97" height="119.97" filterUnits="userSpaceOnUse" color-interpolation-filters="sRGB">
<feFlood flood-opacity="0" result="BackgroundImageFix"/>
<feColorMatrix in="SourceAlpha" type="matrix" values="0 0 0 0 0 0 0 0 0 0 0 0 0 0 0 0 0 0 127 0" result="hardAlpha"/>
<feOffset/>
<feGaussianBlur stdDeviation="17.7426"/>
<feComposite in2="hardAlpha" operator="out"/>
<feColorMatrix type="matrix" values="0 0 0 0 1 0 0 0 0 1 0 0 0 0 1 0 0 0 1 0"/>
<feBlend mode="normal" in2="BackgroundImageFix" result="effect1_dropShadow_4150_7451"/>
<feBlend mode="normal" in="SourceGraphic" in2="effect1_dropShadow_4150_7451" result="shape"/>
</filter>
<clipPath id="clip0_4150_7451">
<rect width="560" height="410.297" rx="8" fill="white"/>
</clipPath>
<clipPath id="clip1_4150_7451">
<rect width="14.513" height="14.513" fill="white" transform="translate(95.0859 372.466)"/>
</clipPath>
</defs>
</svg>
